<svg width="52" height="179" viewBox="0 0 52 179" fill="none" xmlns="http://www.w3.org/2000/svg">
<g clip-path="url(#clip0)">
<path d="M15.625 111.145C15.6724 112.104 15.4211 113.052 14.9095 113.846C14.3979 114.639 13.6541 115.234 12.7916 115.54C11.8854 115.817 10.9425 115.936 9.99997 115.892C9.04375 115.936 8.08707 115.817 7.16664 115.54C6.30422 115.234 5.56039 114.639 5.04878 113.846C4.53716 113.052 4.28588 112.104 4.3333 111.145C4.31843 110.411 4.47845 109.684 4.79873 109.031C5.119 108.378 5.58932 107.821 6.16664 107.41H6.5833C6.76011 107.41 6.92968 107.484 7.05471 107.616C7.17973 107.748 7.24997 107.926 7.24997 108.113C7.24576 108.247 7.20911 108.378 7.1435 108.494C7.07788 108.609 6.98546 108.705 6.87497 108.772C6.49863 109.042 6.19642 109.411 5.99888 109.843C5.80134 110.275 5.71547 110.755 5.74997 111.233C5.7162 111.856 5.88302 112.473 6.22336 112.984C6.56371 113.494 7.05762 113.869 7.62497 114.046C8.40149 114.248 9.2006 114.337 9.99997 114.31C10.7855 114.334 11.5705 114.245 12.3333 114.046C12.9155 113.865 13.4205 113.478 13.7624 112.949C14.1042 112.42 14.2618 111.783 14.2083 111.145C14.2345 110.668 14.145 110.192 13.9482 109.761C13.7513 109.33 13.4537 108.96 13.0833 108.684C12.9728 108.617 12.8804 108.521 12.8148 108.406C12.7492 108.29 12.7125 108.159 12.7083 108.025C12.7083 107.933 12.7255 107.841 12.759 107.756C12.7926 107.671 12.8417 107.593 12.9036 107.528C12.9655 107.462 13.039 107.411 13.1198 107.375C13.2007 107.34 13.2874 107.322 13.375 107.322H13.7916C14.369 107.733 14.8393 108.291 15.1595 108.943C15.4798 109.596 15.6398 110.323 15.625 111.057" fill="white"/>
<path d="M10.4164 101.696C10.4164 103.805 10.9997 104.684 12.3747 104.684C13.7497 104.684 14.208 103.278 14.208 102.003C14.208 100.07 13.333 98.927 11.958 98.927H10.3747L10.4164 101.696ZM15.6247 102.267C15.6902 102.758 15.6551 103.258 15.522 103.734C15.3888 104.21 15.1605 104.65 14.8526 105.024C14.5447 105.399 14.1642 105.7 13.7368 105.907C13.3093 106.113 12.8449 106.221 12.3747 106.222C10.2497 106.222 9.08305 104.684 9.08305 101.828V98.9709H8.33305C6.49972 98.9709 5.70805 99.762 5.70805 101.74C5.72062 102.608 5.95062 103.457 6.37472 104.201C6.41085 104.374 6.41085 104.554 6.37472 104.728C6.3749 104.824 6.35637 104.919 6.3203 105.008C6.28422 105.096 6.23135 105.176 6.16496 105.241C6.09857 105.307 6.02008 105.358 5.93432 105.391C5.84856 105.424 5.75737 105.437 5.66638 105.431C5.44162 105.412 5.23264 105.302 5.08305 105.124C4.46042 104.087 4.14157 102.879 4.16638 101.652C4.16638 98.7951 5.41638 97.2569 8.08305 97.2569H12.2497C12.6017 97.3778 12.981 97.3778 13.333 97.2569L14.1247 96.8175H14.5414C14.6536 96.7663 14.777 96.7487 14.8981 96.7665C15.0192 96.7844 15.1334 96.837 15.228 96.9187C15.3226 97.0004 15.3941 97.1079 15.4347 97.2296C15.4753 97.3513 15.4834 97.4823 15.458 97.6085C15.4601 97.7613 15.4223 97.9118 15.3488 98.0436C15.2754 98.1753 15.169 98.2832 15.0414 98.3556L14.2914 98.7951C14.7538 99.244 15.1139 99.7974 15.3448 100.414C15.5757 101.03 15.6714 101.694 15.6247 102.355" fill="white"/>
<path d="M15.4582 86.7541C15.4642 86.8596 15.449 86.9654 15.4135 87.0642C15.3779 87.1631 15.3229 87.2529 15.252 87.3277C15.1811 87.4025 15.096 87.4605 15.0022 87.498C14.9085 87.5355 14.8082 87.5516 14.7082 87.5451H8.79148C6.74982 87.5451 5.74982 88.4241 5.74982 90.3139C5.73746 90.7058 5.80295 91.0962 5.94209 91.4599C6.08122 91.8236 6.29093 92.1526 6.55774 92.4257C6.82456 92.6988 7.14257 92.9101 7.49138 93.0459C7.84019 93.1818 8.21207 93.2392 8.58315 93.2144H14.7082C14.8082 93.208 14.9085 93.2241 15.0022 93.2616C15.096 93.2991 15.1811 93.3571 15.252 93.4319C15.3229 93.5067 15.3779 93.5965 15.4135 93.6954C15.449 93.7942 15.4642 93.9 15.4582 94.0055C15.4583 94.1074 15.4387 94.2083 15.4005 94.3019C15.3624 94.3956 15.3064 94.48 15.2362 94.55C15.1659 94.62 15.0828 94.674 14.992 94.7089C14.9012 94.7437 14.8046 94.7586 14.7082 94.7526H5.24982C5.15005 94.7651 5.0489 94.755 4.9531 94.7231C4.8573 94.6912 4.76903 94.6381 4.69415 94.5675C4.61928 94.4968 4.55951 94.4102 4.51882 94.3133C4.47814 94.2164 4.45745 94.1115 4.45815 94.0055C4.45799 93.8978 4.47868 93.7912 4.51895 93.6923C4.55922 93.5933 4.61822 93.5041 4.69234 93.43C4.76646 93.3559 4.85413 93.2986 4.94999 93.2616C5.04585 93.2245 5.14788 93.2085 5.24982 93.2144H5.62482C5.19479 92.826 4.8548 92.3389 4.6309 91.7904C4.40701 91.2419 4.30515 90.6466 4.33315 90.0502C4.31079 89.4822 4.40607 88.916 4.61234 88.3909C4.81862 87.8657 5.13093 87.3943 5.52754 87.0094C5.92415 86.6246 6.39552 86.3355 6.90884 86.1624C7.42216 85.9893 7.96509 85.9362 8.49982 86.007H14.7082C14.8046 86.001 14.9012 86.0159 14.992 86.0507C15.0828 86.0856 15.1659 86.1396 15.2362 86.2096C15.3064 86.2796 15.3624 86.364 15.4005 86.4576C15.4387 86.5513 15.4583 86.6522 15.4582 86.7541Z" fill="white"/>
<path d="M15.4582 79.6778V80.0294C15.4582 82.1389 14.6248 82.9739 12.4998 82.9739H5.87484V83.8968C5.88754 83.9943 5.87941 84.0935 5.85102 84.1872C5.82263 84.2809 5.77472 84.3668 5.71079 84.4384C5.64686 84.5101 5.56854 84.5657 5.48156 84.6013C5.39459 84.6368 5.30118 84.6514 5.20817 84.6439C4.83317 84.6439 4.58317 84.3802 4.58317 83.8968V83.0179H1.70817C1.20817 83.0179 0.916504 82.7542 0.916504 82.2707C0.916504 81.7873 1.20817 81.5236 1.70817 81.5236H4.37484V79.7218C4.36289 79.6281 4.37017 79.5328 4.39618 79.4424C4.42219 79.352 4.46633 79.2685 4.5256 79.1977C4.58488 79.1268 4.6579 79.0702 4.73972 79.0318C4.82154 78.9933 4.91025 78.9738 4.99984 78.9746C5.091 78.9744 5.18124 78.994 5.26496 79.032C5.34869 79.0701 5.42412 79.1259 5.48661 79.1959C5.54909 79.2659 5.59729 79.3487 5.62823 79.4392C5.65918 79.5296 5.6722 79.6258 5.6665 79.7218V81.5236H12.2498C13.4998 81.5236 13.8332 81.172 13.8332 79.7657C13.8275 79.664 13.8416 79.5621 13.8746 79.4663C13.9077 79.3705 13.959 79.2829 14.0253 79.2088C14.0917 79.1347 14.1717 79.0757 14.2605 79.0354C14.3492 78.9951 14.4449 78.9745 14.5415 78.9746C14.6381 78.9745 14.7338 78.9951 14.8226 79.0354C14.9113 79.0757 14.9913 79.1347 15.0577 79.2088C15.124 79.2829 15.1753 79.3705 15.2084 79.4663C15.2414 79.5621 15.2555 79.664 15.2498 79.7657" fill="white"/>
<path d="M5.87464 73.2616C5.84087 73.8847 6.00769 74.5016 6.34804 75.0121C6.68839 75.5227 7.1823 75.8969 7.74964 76.0743C8.50574 76.3132 9.29438 76.4172 10.083 76.3819C10.8854 76.4205 11.6883 76.3165 12.458 76.0743C13.002 75.8732 13.4682 75.4888 13.7844 74.9804C14.1007 74.4721 14.2496 73.868 14.208 73.2616C14.2439 72.6327 14.0786 72.0094 13.7387 71.4914C13.3987 70.9735 12.9037 70.5909 12.333 70.405C11.5899 70.1724 10.8159 70.0685 10.0413 70.0973C9.25272 70.0621 8.46407 70.166 7.70798 70.405C7.13729 70.5909 6.64228 70.9735 6.3023 71.4914C5.96232 72.0094 5.79705 72.6327 5.83298 73.2616H5.87464ZM15.708 73.2616C15.7554 74.2199 15.5041 75.1683 14.9925 75.9619C14.4809 76.7555 13.7371 77.3506 12.8746 77.6564C11.9588 77.9593 11.0003 78.0932 10.0413 78.0519C9.09586 78.0962 8.1505 77.9623 7.24964 77.6564C6.38722 77.3506 5.6434 76.7555 5.13179 75.9619C4.62017 75.1683 4.36889 74.2199 4.41631 73.2616C4.36889 72.3032 4.62017 71.3548 5.13179 70.5613C5.6434 69.7677 6.38722 69.1726 7.24964 68.8668C8.15934 68.6116 9.10125 68.5078 10.0413 68.5592C10.9994 68.5368 11.9551 68.6702 12.8746 68.9547C13.7371 69.2605 14.4809 69.8556 14.9925 70.6492C15.5041 71.4427 15.7554 72.3911 15.708 73.3495" fill="white"/>
<path d="M15.4582 58.4509C15.4642 58.5564 15.449 58.6621 15.4135 58.761C15.3779 58.8599 15.3229 58.9497 15.252 59.0245C15.1811 59.0993 15.096 59.1573 15.0022 59.1948C14.9085 59.2323 14.8082 59.2484 14.7082 59.2419H8.79149C6.74982 59.2419 5.74982 60.1649 5.74982 62.0107C5.73746 62.4026 5.80295 62.793 5.94209 63.1567C6.08123 63.5203 6.29093 63.8493 6.55775 64.1225C6.82456 64.3956 7.14258 64.6069 7.49138 64.7427C7.84019 64.8786 8.21207 64.936 8.58315 64.9112H14.7082C14.8082 64.9048 14.9085 64.9209 15.0022 64.9584C15.096 64.9958 15.1811 65.0539 15.252 65.1287C15.3229 65.2034 15.3779 65.2932 15.4135 65.3921C15.449 65.491 15.4642 65.5967 15.4582 65.7023C15.4583 65.8042 15.4387 65.9051 15.4005 65.9987C15.3624 66.0924 15.3064 66.1768 15.2362 66.2467C15.1659 66.3167 15.0828 66.3708 14.992 66.4057C14.9012 66.4405 14.8046 66.4554 14.7082 66.4494H5.24982C5.15005 66.4619 5.0489 66.4518 4.9531 66.4199C4.8573 66.388 4.76903 66.3349 4.69416 66.2643C4.61928 66.1936 4.55952 66.107 4.51883 66.0101C4.47814 65.9132 4.45745 65.8083 4.45815 65.7023C4.45799 65.5946 4.47869 65.488 4.51895 65.3891C4.55922 65.2901 4.61822 65.2009 4.69234 65.1268C4.76646 65.0527 4.85414 64.9954 4.95 64.9583C5.04585 64.9213 5.14788 64.9052 5.24982 64.9112H5.62482C5.1872 64.5295 4.84187 64.0435 4.61729 63.4933C4.39272 62.9432 4.29533 62.3446 4.33315 61.747C4.3108 61.179 4.40607 60.6128 4.61235 60.0876C4.81862 59.5625 5.13093 59.0911 5.52754 58.7062C5.92415 58.3214 6.39553 58.0323 6.90884 57.8592C7.42216 57.686 7.96509 57.633 8.49982 57.7037H14.7082C14.8046 57.6978 14.9012 57.7127 14.992 57.7475C15.0828 57.7824 15.1659 57.8364 15.2362 57.9064C15.3064 57.9764 15.3624 58.0608 15.4005 58.1544C15.4387 58.2481 15.4583 58.349 15.4582 58.4509Z" fill="white"/>
<path d="M5.87484 47.0241C5.84286 47.6301 6.0068 48.2296 6.33983 48.7246C6.67286 49.2196 7.15528 49.5807 7.70817 49.7489C8.4779 49.9911 9.28076 50.0951 10.0832 50.0565C10.8994 50.0975 11.7163 49.9935 12.4998 49.7489C13.0294 49.5567 13.484 49.1854 13.7929 48.6926C14.1018 48.1999 14.2478 47.6134 14.2082 47.0241C14.2474 46.4235 14.097 45.8262 13.7804 45.3253C13.4638 44.8244 12.9989 44.4482 12.4582 44.2554C11.6669 44.0573 10.8545 43.9687 10.0415 43.9917C9.21457 43.9632 8.38775 44.0519 7.58317 44.2554C7.04247 44.4482 6.57752 44.8244 6.26092 45.3253C5.94433 45.8262 5.79391 46.4235 5.83317 47.0241H5.87484ZM15.7082 47.0241C15.7485 47.9095 15.5024 48.7832 15.0104 49.5018C14.5183 50.2204 13.8094 50.7414 12.9998 50.9794C12.0368 51.2602 11.0405 51.3934 10.0415 51.375C9.05621 51.3935 8.07363 51.2603 7.12484 50.9794C6.31527 50.7414 5.60637 50.2204 5.1143 49.5018C4.62224 48.7832 4.3762 47.9095 4.41651 47.0241C4.36498 46.4121 4.45568 45.7961 4.68075 45.2294C4.90582 44.6628 5.25848 44.1625 5.70817 43.772H0.749841C0.653376 43.778 0.556767 43.7631 0.46596 43.7282C0.375153 43.6934 0.292065 43.6393 0.221812 43.5693C0.151559 43.4993 0.0956277 43.4149 0.0574538 43.3213C0.0192799 43.2277 -0.000327381 43.1268 -0.000160044 43.0249C-0.00624241 42.9193 0.00898797 42.8136 0.0445275 42.7147C0.0800671 42.6158 0.135105 42.526 0.206 42.4512C0.276896 42.3765 0.362033 42.3184 0.455784 42.2809C0.549534 42.2434 0.649765 42.2274 0.749841 42.2338H14.7082C14.8082 42.2274 14.9085 42.2434 15.0022 42.2809C15.096 42.3184 15.1811 42.3765 15.252 42.4512C15.3229 42.526 15.3779 42.6158 15.4135 42.7147C15.449 42.8136 15.4643 42.9193 15.4582 43.0249C15.4583 43.1268 15.4387 43.2277 15.4006 43.3213C15.3624 43.4149 15.3064 43.4993 15.2362 43.5693C15.1659 43.6393 15.0829 43.6934 14.9921 43.7282C14.9012 43.7631 14.8046 43.778 14.7082 43.772H14.2082C14.6579 44.1625 15.0105 44.6628 15.2356 45.2294C15.4607 45.7961 15.5514 46.4121 15.4998 47.0241" fill="white"/>
<path d="M5.87513 35.7291C5.82576 36.3668 5.99076 37.0026 6.3412 37.5249C6.69164 38.0472 7.20517 38.4227 7.7918 38.5857C8.27521 38.6622 8.76672 38.6622 9.25013 38.5857V32.6967C8.76663 32.6215 8.2753 32.6215 7.7918 32.6967C7.21334 32.8744 6.70901 33.2536 6.36096 33.7723C6.01291 34.291 5.84167 34.9188 5.87513 35.5533V35.7291ZM15.7918 35.5533C15.8365 36.5172 15.5792 37.4697 15.0596 38.264C14.54 39.0583 13.787 39.6501 12.9168 39.9481C11.9953 40.3009 11.0221 40.4794 10.0418 40.4755C9.0993 40.5193 8.15634 40.4006 7.25013 40.1239C6.38771 39.8181 5.64389 39.223 5.13227 38.4294C4.62066 37.6358 4.36937 36.6874 4.4168 35.7291C4.36937 34.7707 4.62066 33.8224 5.13227 33.0288C5.64389 32.2352 6.38771 31.6401 7.25013 31.3343C8.08366 31.0485 8.9573 30.9148 9.83346 30.9388C9.92463 30.9386 10.0149 30.9581 10.0986 30.9962C10.1823 31.0342 10.2578 31.09 10.3202 31.16C10.3827 31.23 10.4309 31.3128 10.4619 31.4033C10.4928 31.4937 10.5058 31.5899 10.5001 31.6859V38.6297C11.1065 38.7431 11.7271 38.7431 12.3335 38.6297C12.929 38.4149 13.4383 37.9942 13.7787 37.4357C14.119 36.8773 14.2705 36.214 14.2085 35.5533C14.2352 35.0017 14.1443 34.4508 13.9424 33.9412C13.7405 33.4316 13.4327 32.9763 13.0418 32.6088C12.9653 32.5367 12.9036 32.4488 12.8606 32.3505C12.8176 32.2522 12.7942 32.1457 12.7918 32.0375C12.7856 31.9492 12.7975 31.8606 12.8267 31.7776C12.8559 31.6947 12.9017 31.6193 12.961 31.5568C13.0204 31.4942 13.0918 31.4458 13.1705 31.415C13.2491 31.3842 13.3331 31.3717 13.4168 31.3783C13.5779 31.3141 13.7557 31.3141 13.9168 31.3783C14.4786 31.8669 14.9253 32.4864 15.2217 33.188C15.5181 33.8896 15.6562 34.6541 15.6251 35.4215" fill="white"/>
<path d="M49.5 104.727L23.375 115.187C23.0572 115.235 22.7344 115.235 22.4167 115.187C22.1888 115.193 21.9622 115.15 21.7515 115.058C21.5407 114.967 21.3506 114.829 21.1934 114.655C21.0362 114.481 20.9155 114.274 20.8391 114.048C20.7627 113.821 20.7324 113.58 20.75 113.341C20.757 112.945 20.8872 112.563 21.1207 112.253C21.3541 111.943 21.6778 111.723 22.0417 111.627L45.9167 101.958L22.0417 92.7731C21.6778 92.6766 21.3541 92.4565 21.1207 92.1467C20.8872 91.837 20.757 91.4547 20.75 91.0591C20.7324 90.8194 20.7627 90.5785 20.8391 90.352C20.9155 90.1256 21.0362 89.9186 21.1934 89.7445C21.3506 89.5704 21.5407 89.4332 21.7515 89.3416C21.9622 89.2501 22.1888 89.2064 22.4167 89.2133C22.7344 89.1646 23.0572 89.1646 23.375 89.2133L49.5 99.8047C51.0833 100.42 51.5833 101.035 51.5833 102.178C51.5833 103.321 51.0833 103.892 49.5 104.507" fill="white"/>
<path d="M41.9999 66.8446H37.4582C37.4074 66.8373 37.3556 66.8426 37.307 66.8599C37.2583 66.8772 37.2142 66.9061 37.1779 66.9444C37.1416 66.9827 37.1141 67.0293 37.0977 67.0806C37.0813 67.1319 37.0764 67.1865 37.0832 67.2401V74.8871C37.0832 81.2595 38.9582 83.9403 42.9999 83.9403C47.0416 83.9403 48.7499 81.2156 48.7499 76.0297C48.7499 70.8438 46.1666 66.8446 41.9999 66.8446ZM49.9582 61.1313C50.1845 61.1366 50.4074 61.1905 50.6133 61.2896C50.8192 61.3887 51.0038 61.531 51.1558 61.7078C51.3079 61.8847 51.4242 62.0923 51.4977 62.3181C51.5712 62.5439 51.6003 62.7831 51.5832 63.0211C51.5874 63.3942 51.4867 63.7602 51.2939 64.0731C51.1011 64.3859 50.8248 64.6315 50.4999 64.779L48.0832 66.3172C49.4389 67.5797 50.4955 69.1594 51.1684 70.9299C51.8413 72.7004 52.1118 74.6125 51.9582 76.5131C52.1291 77.8672 52.026 79.2441 51.6556 80.5531C51.2853 81.8621 50.6563 83.0734 49.8098 84.1073C48.9634 85.1413 47.9189 85.9743 46.7451 86.5515C45.5713 87.1287 44.2949 87.437 42.9999 87.4562C37.0416 87.4562 33.9582 83.0614 33.9582 75.3265V67.2401C33.9651 67.1865 33.9602 67.1319 33.9437 67.0806C33.9273 67.0293 33.8999 66.9827 33.8636 66.9444C33.8273 66.9061 33.7831 66.8772 33.7345 66.8599C33.6859 66.8426 33.6341 66.8373 33.5832 66.8446H31.4166C26.4166 66.8446 23.6249 68.8662 23.6249 75.1507C23.6562 77.7244 24.301 80.2483 25.4999 82.49C25.7672 82.8554 25.9136 83.3031 25.9166 83.7645C25.9293 83.9911 25.8957 84.218 25.8179 84.4297C25.7402 84.6414 25.6201 84.8329 25.466 84.9913C25.3118 85.1497 25.1272 85.2713 24.9245 85.3478C24.7219 85.4243 24.506 85.4539 24.2916 85.4346C24.024 85.4263 23.7616 85.3549 23.5237 85.2256C23.2857 85.0963 23.0783 84.9124 22.9166 84.6874C21.1184 81.8142 20.2287 78.4143 20.3749 74.9749C20.3749 67.0643 23.7499 63.3727 31.1666 63.3727H43.3749C44.494 63.4524 45.6136 63.2253 46.6249 62.7135L48.9166 61.439C49.2111 61.2645 49.5381 61.1595 49.8749 61.1313" fill="white"/>
<path d="M49.7501 34.8505H47.5418C48.958 35.8735 50.0905 37.2757 50.8228 38.9131C51.555 40.5506 51.8608 42.3641 51.7085 44.1675C51.7085 51.1991 47.5418 55.2424 40.1668 55.2424H22.5418C22.325 55.2665 22.1058 55.2444 21.8972 55.1774C21.6887 55.1103 21.495 54.9997 21.3278 54.8521C21.1607 54.7044 21.0234 54.5228 20.9241 54.3181C20.8249 54.1133 20.7657 53.8896 20.7501 53.6602C20.7098 53.3986 20.7275 53.1306 20.802 52.8774C20.8764 52.6242 21.0056 52.3926 21.1792 52.2009C21.3528 52.0093 21.5663 51.8627 21.8027 51.7728C22.0391 51.6828 22.2921 51.6519 22.5418 51.6826H39.5835C45.6251 51.6826 48.6668 49.0017 48.6668 43.4643C48.7204 42.2951 48.5415 41.1269 48.1417 40.0349C47.7419 38.9429 47.1299 37.9512 46.3451 37.1235C45.5604 36.2957 44.6201 35.6503 43.5848 35.2286C42.5495 34.8068 41.442 34.6182 40.3335 34.6747H22.5418C22.3044 34.7075 22.0631 34.6846 21.835 34.6076C21.607 34.5306 21.3979 34.4014 21.2228 34.2292C21.0476 34.0571 20.9107 33.8462 20.8218 33.6117C20.7328 33.3772 20.6942 33.1249 20.7085 32.8728C20.7181 32.6355 20.7745 32.4028 20.8739 32.1897C20.9734 31.9765 21.1137 31.7875 21.2861 31.6346C21.4585 31.4817 21.6592 31.3682 21.8753 31.3015C22.0915 31.2347 22.3185 31.2161 22.5418 31.2468H49.7501C50.2032 31.2468 50.6377 31.4366 50.9581 31.7745C51.2785 32.1124 51.4585 32.5708 51.4585 33.0486C51.4585 33.5265 51.2785 33.9848 50.9581 34.3227C50.6377 34.6607 50.2032 34.8505 49.7501 34.8505Z" fill="white"/>
<path d="M43.3751 4.43814C41.0102 3.7875 38.5675 3.50618 36.1251 3.60314C33.7105 3.51475 31.2966 3.79601 28.9585 4.43814C27.3231 4.9713 25.9084 6.07534 24.9468 7.56885C23.9851 9.06236 23.5337 10.8565 23.6668 12.6564C23.576 14.4671 24.0648 16.2575 25.0547 17.74C26.0446 19.2224 27.4782 20.311 29.1251 20.8307C31.3961 21.5311 33.7617 21.8282 36.1251 21.7097C38.5162 21.8363 40.9105 21.5392 43.2085 20.8307C44.8555 20.311 46.289 19.2224 47.2789 17.74C48.2688 16.2575 48.7576 14.4671 48.6668 12.6564C48.7999 10.8565 48.3485 9.06236 47.3869 7.56885C46.4252 6.07534 45.0105 4.9713 43.3751 4.43814ZM49.7501 3.60314H47.5418C49.0683 4.58881 50.2953 6.01475 51.0779 7.71248C51.8606 9.4102 52.1661 11.3088 51.9585 13.1838C52.0734 15.6405 51.394 18.0655 50.0314 20.0616C48.6688 22.0577 46.7038 23.5066 44.4585 24.1708C41.7594 25.0335 38.9436 25.4196 36.1251 25.3134C33.3065 25.4237 30.4901 25.0375 27.7918 24.1708C25.5464 23.5066 23.5815 22.0577 22.2189 20.0616C20.8563 18.0655 20.1768 15.6405 20.2918 13.1838C20.083 11.3038 20.3925 9.40014 21.1833 7.70093C21.974 6.00171 23.2124 4.57897 24.7501 3.60314H9.66681C9.42941 3.63596 9.18806 3.61305 8.96003 3.53604C8.73201 3.45903 8.52293 3.32983 8.34776 3.15766C8.17259 2.9855 8.03566 2.77463 7.94675 2.54015C7.85784 2.30566 7.81916 2.05336 7.83347 1.80127C7.81916 1.54918 7.85784 1.29686 7.94675 1.06238C8.03566 0.827895 8.17259 0.617044 8.34776 0.444881C8.52293 0.272718 8.73201 0.14351 8.96003 0.0664992C9.18806 -0.010511 9.42941 -0.0334219 9.66681 -0.000593535H49.7501C50.2032 -0.000593535 50.6377 0.189247 50.9581 0.527163C51.2785 0.865078 51.4585 1.32339 51.4585 1.80127C51.4585 2.27916 51.2785 2.73746 50.9581 3.07538C50.6377 3.4133 50.2032 3.60314 49.7501 3.60314Z" fill="white"/>
<path d="M50.2918 127.317C50.2369 131.371 49.9866 135.419 49.5418 139.446C49.3257 141.314 48.9916 143.164 48.5418 144.984H8.0835C7.66719 143.158 7.34726 141.31 7.12516 139.446C6.6482 135.421 6.37004 131.373 6.29183 127.317C6.29183 125.163 6.29183 123.449 6.29183 122.483H50.3335C50.3335 123.449 50.3335 125.163 50.3335 127.317H50.2918ZM47.1252 149.906L44.8752 146.654H48.1252C47.8335 147.753 47.5002 148.807 47.1252 149.906ZM19.2502 146.654L35.3335 169.99L33.7502 171.836L16.3752 146.654H19.2502ZM23.4168 146.654L37.5835 167.265L36.0835 169.199L20.4585 146.654H23.4168ZM27.5835 146.654L39.8335 164.233L38.3752 166.255L24.7502 146.478L27.5835 146.654ZM31.7502 146.654L41.9168 161.376L40.2085 163.53L28.5835 146.654H31.7502ZM35.9168 146.654L43.3752 158.168C42.9849 158.955 42.5536 159.717 42.0835 160.454L32.6668 146.654H35.9168ZM40.0835 146.654L45.1668 154.74C44.8335 155.575 44.4168 156.366 44.0002 157.201L36.7085 146.654H40.0835ZM44.2502 146.654L47.2918 151.049C46.9585 151.928 46.6252 152.807 46.2502 153.686L41.3752 146.654H44.2502ZM31.4168 174.385L12.3335 146.654H15.1668L33.0835 172.583L32.6668 173.023L31.4168 174.385ZM29.6252 176.319L29.0418 176.846L8.66683 147.269C8.66683 147.269 8.66683 146.83 8.66683 146.654H11.2918L30.8752 175.132C30.4585 175.572 30.0835 176.011 29.7502 176.319H29.6252ZM24.9585 174.033L24.0835 173.023C19.6661 168.338 15.8679 163.045 12.7918 157.289C11.6037 155.058 10.5731 152.737 9.7085 150.346L28.1252 177.066C27.7027 176.829 27.3221 176.516 27.0002 176.143C26.4168 175.572 25.6668 174.781 24.8335 173.858L24.9585 174.033ZM51.7085 121.648C51.6978 121.434 51.6097 121.232 51.4624 121.085C51.3151 120.938 51.1198 120.856 50.9168 120.856H5.50016C5.29722 120.856 5.10193 120.938 4.9546 121.085C4.80728 121.232 4.71918 121.434 4.7085 121.648C4.7085 121.648 4.7085 123.977 4.7085 127.361C4.76498 131.476 5.0432 135.584 5.54183 139.666C5.74992 141.456 6.05599 143.231 6.4585 144.984L6.7085 145.995C7.75189 150.209 9.29166 154.269 11.2918 158.08C14.4516 163.954 18.3323 169.362 22.8335 174.165C23.1475 174.48 23.4399 174.818 23.7085 175.176C24.5835 176.099 25.2918 176.934 25.9168 177.505C26.5198 178.249 27.341 178.76 28.2502 178.956C29.2728 178.858 30.2169 178.337 30.8752 177.505C31.3752 177.022 31.9585 176.363 32.6668 175.572L33.9585 174.165C38.4597 169.362 42.3404 163.954 45.5002 158.08C47.42 154.235 48.9025 150.163 49.9168 145.951L50.1668 144.896C50.5827 143.144 50.9027 141.369 51.1252 139.578C51.5418 135.931 51.7918 131.799 51.9168 127.273C51.9168 123.889 51.9168 121.604 51.9168 121.56" fill="white"/>
<path d="M14.2086 126.219C14.2015 126.171 14.2052 126.122 14.2194 126.076C14.2337 126.03 14.258 125.988 14.2905 125.953C14.323 125.919 14.3627 125.893 14.4064 125.878C14.4501 125.863 14.4965 125.859 14.5419 125.867C14.6303 125.867 14.7151 125.904 14.7776 125.97C14.8401 126.036 14.8753 126.125 14.8753 126.219V130.35H17.0003C17.0887 130.35 17.1735 130.387 17.236 130.453C17.2985 130.519 17.3336 130.608 17.3336 130.701C17.334 130.746 17.3254 130.79 17.3082 130.83C17.291 130.871 17.2657 130.907 17.234 130.936C17.2023 130.965 17.1651 130.987 17.1247 130.999C17.0844 131.012 17.0419 131.015 17.0003 131.009H14.5419C14.5003 131.015 14.4578 131.012 14.4175 130.999C14.3771 130.987 14.3399 130.965 14.3082 130.936C14.2765 130.907 14.2512 130.871 14.234 130.83C14.2168 130.79 14.2082 130.746 14.2086 130.701V126.219Z" fill="white"/>
<path d="M18.6671 126.219C18.66 126.171 18.6637 126.122 18.6779 126.076C18.6922 126.03 18.7165 125.988 18.749 125.953C18.7815 125.919 18.8212 125.893 18.8649 125.878C18.9086 125.863 18.955 125.859 19.0004 125.867C19.0425 125.867 19.0842 125.876 19.1226 125.894C19.161 125.912 19.1952 125.939 19.2229 125.972C19.2506 126.005 19.2712 126.045 19.2831 126.087C19.295 126.13 19.2981 126.175 19.2921 126.219V130.613C19.2979 130.66 19.295 130.707 19.2834 130.752C19.2719 130.797 19.2519 130.839 19.2248 130.876C19.1976 130.912 19.1638 130.943 19.1253 130.966C19.0868 130.989 19.0443 131.003 19.0004 131.009C18.9529 131.009 18.9059 130.999 18.8625 130.979C18.819 130.958 18.7802 130.928 18.7487 130.891C18.7171 130.853 18.6935 130.809 18.6794 130.761C18.6654 130.714 18.6612 130.663 18.6671 130.613V126.219Z" fill="white"/>
<path d="M21.625 130.437H22.75C22.862 130.457 22.9769 130.45 23.0861 130.417C23.1952 130.383 23.2957 130.324 23.38 130.244C23.4643 130.163 23.5301 130.064 23.5726 129.952C23.615 129.841 23.6329 129.721 23.625 129.602C23.6317 129.481 23.6133 129.36 23.5711 129.247C23.5289 129.134 23.4639 129.032 23.3807 128.948C23.2974 128.865 23.1978 128.801 23.0889 128.762C22.98 128.723 22.8643 128.71 22.75 128.723H21.625V130.349V130.437ZM22.7083 128.02C23.25 128.02 23.5833 127.712 23.5833 127.229C23.5833 126.745 23.25 126.438 22.7083 126.438H21.625V127.932H22.5417L22.7083 128.02ZM20.9167 126.13C20.9167 126.048 20.9474 125.97 21.0021 125.912C21.0568 125.855 21.131 125.822 21.2083 125.822H22.5417C23.5417 125.822 24.0417 126.35 24.0417 127.185C24.0564 127.419 23.9996 127.652 23.8796 127.85C23.7597 128.047 23.5828 128.199 23.375 128.283C23.5979 128.38 23.7884 128.544 23.9221 128.756C24.0557 128.967 24.1264 129.216 24.125 129.47C24.125 130.437 23.5417 130.964 22.5417 130.964H21.0417C20.9643 130.964 20.8901 130.932 20.8354 130.874C20.7807 130.816 20.75 130.738 20.75 130.657L20.9167 126.13Z" fill="white"/>
<path d="M25.6667 126.218C25.6667 126.136 25.6974 126.058 25.7521 126C25.8068 125.943 25.881 125.91 25.9583 125.91H28.4583C28.5 125.904 28.5424 125.907 28.5828 125.92C28.6231 125.932 28.6604 125.954 28.6921 125.983C28.7237 126.013 28.749 126.049 28.7662 126.089C28.7834 126.13 28.7921 126.174 28.7917 126.218C28.7921 126.262 28.7834 126.306 28.7662 126.347C28.749 126.387 28.7237 126.423 28.6921 126.453C28.6604 126.482 28.6231 126.504 28.5828 126.516C28.5424 126.529 28.5 126.532 28.4583 126.526H26.375V128.064H28.125C28.1649 128.056 28.2061 128.058 28.2449 128.071C28.2837 128.084 28.319 128.106 28.3477 128.137C28.3764 128.167 28.3977 128.204 28.4097 128.245C28.4217 128.286 28.4241 128.329 28.4167 128.371C28.4241 128.414 28.4217 128.457 28.4097 128.498C28.3977 128.539 28.3764 128.576 28.3477 128.606C28.319 128.637 28.2837 128.659 28.2449 128.672C28.2061 128.684 28.1649 128.687 28.125 128.679H26.3333V130.217H28.4167C28.4583 130.211 28.5008 130.214 28.5411 130.227C28.5815 130.239 28.6187 130.261 28.6504 130.29C28.6821 130.319 28.7074 130.356 28.7246 130.396C28.7418 130.437 28.7504 130.481 28.75 130.525C28.7504 130.569 28.7418 130.613 28.7246 130.654C28.7074 130.694 28.6821 130.73 28.6504 130.76C28.6187 130.789 28.5815 130.81 28.5411 130.823C28.5008 130.836 28.4583 130.839 28.4167 130.833H25.9167C25.8393 130.833 25.7651 130.8 25.7104 130.742C25.6557 130.685 25.625 130.606 25.625 130.525L25.6667 126.218Z" fill="white"/>
<path d="M32.8748 127.405C32.8748 126.834 32.5415 126.526 31.9582 126.526H30.8748V128.372H31.9998C32.5832 128.372 32.9165 128.064 32.9165 127.537L32.8748 127.405ZM30.1665 130.833V126.438C30.1665 126.356 30.1972 126.278 30.2519 126.221C30.3066 126.163 30.3808 126.13 30.4582 126.13H31.9998C32.1975 126.105 32.398 126.125 32.5876 126.189C32.7771 126.253 32.9512 126.36 33.0978 126.502C33.2444 126.644 33.36 126.818 33.4366 127.012C33.5132 127.206 33.549 127.415 33.5415 127.625C33.5469 127.925 33.4607 128.22 33.2957 128.465C33.1308 128.71 32.8956 128.893 32.6248 128.987L33.4998 130.789C33.4998 130.835 33.4912 130.881 33.4745 130.923C33.4577 130.966 33.4332 131.005 33.4022 131.038C33.3713 131.07 33.3345 131.096 33.2941 131.114C33.2536 131.131 33.2103 131.141 33.1665 131.141C33.1665 131.141 33.1665 131.141 32.8748 130.921L31.9165 128.899H30.8748V130.701C30.8808 130.751 30.8766 130.801 30.8625 130.849C30.8484 130.897 30.8248 130.941 30.7933 130.979C30.7617 131.016 30.7229 131.046 30.6795 131.066C30.6361 131.087 30.589 131.097 30.5415 131.097C30.494 131.097 30.4469 131.087 30.4035 131.066C30.3601 131.046 30.3213 131.016 30.2898 130.979C30.2582 130.941 30.2346 130.897 30.2205 130.849C30.2064 130.801 30.2022 130.751 30.2082 130.701" fill="white"/>
<path d="M37.7502 125.91C37.8275 125.91 37.9017 125.943 37.9564 126C38.0111 126.058 38.0418 126.136 38.0418 126.218C38.0418 126.3 38.0111 126.378 37.9564 126.436C37.9017 126.493 37.8275 126.526 37.7502 126.526H36.6252V130.657C36.631 130.703 36.6281 130.75 36.6165 130.795C36.6049 130.84 36.585 130.882 36.5579 130.919C36.5307 130.956 36.4969 130.987 36.4584 131.009C36.4199 131.032 36.3774 131.047 36.3335 131.052C36.286 131.053 36.239 131.042 36.1955 131.022C36.1521 131.002 36.1133 130.972 36.0818 130.934C36.0502 130.897 36.0266 130.853 36.0125 130.805C35.9984 130.757 35.9942 130.706 36.0002 130.657V126.526H34.7918C34.7502 126.532 34.7077 126.529 34.6674 126.516C34.6271 126.504 34.5898 126.482 34.5581 126.453C34.5264 126.423 34.5011 126.387 34.4839 126.347C34.4668 126.306 34.4581 126.262 34.4585 126.218C34.4581 126.174 34.4668 126.13 34.4839 126.089C34.5011 126.049 34.5264 126.013 34.5581 125.983C34.5898 125.954 34.6271 125.932 34.6674 125.92C34.7077 125.907 34.7502 125.904 34.7918 125.91H37.7502Z" fill="white"/>
<path d="M30.8752 132.502C30.934 132.513 30.9874 132.545 31.0256 132.594C31.0638 132.642 31.0843 132.703 31.0835 132.766C31.0518 132.785 31.0159 132.796 30.9793 132.796C30.9428 132.796 30.9069 132.785 30.8752 132.766H30.0835V135.403C30.0835 135.473 30.0572 135.54 30.0103 135.589C29.9634 135.639 29.8998 135.667 29.8335 135.667C29.7672 135.667 29.7036 135.639 29.6567 135.589C29.6099 135.54 29.5835 135.473 29.5835 135.403V132.766H28.7919C28.7602 132.785 28.7243 132.796 28.6877 132.796C28.6511 132.796 28.6152 132.785 28.5835 132.766C28.5827 132.703 28.6032 132.642 28.6414 132.594C28.6796 132.545 28.733 132.513 28.7919 132.502H30.8752Z" fill="white"/>
<path d="M19.625 138.831C19.625 138.26 19.25 137.952 18.6667 137.952H17.5417V139.666H18.625C18.7467 139.678 18.8695 139.664 18.9855 139.623C19.1015 139.582 19.208 139.516 19.2983 139.429C19.3886 139.342 19.4606 139.236 19.5097 139.118C19.5588 139 19.5839 138.872 19.5833 138.743L19.625 138.831ZM16.875 137.513C16.8527 137.463 16.8454 137.408 16.8542 137.354C16.8629 137.301 16.8873 137.251 16.9238 137.213C16.9604 137.174 17.0074 137.148 17.0583 137.139C17.1093 137.13 17.1617 137.138 17.2083 137.161H18.7083C18.9082 137.142 19.1095 137.168 19.299 137.238C19.4885 137.307 19.6619 137.418 19.8076 137.564C19.9534 137.709 20.0682 137.886 20.1445 138.081C20.2207 138.277 20.2567 138.488 20.25 138.699C20.2567 138.911 20.2207 139.121 20.1445 139.317C20.0682 139.513 19.9534 139.689 19.8076 139.835C19.6619 139.98 19.4885 140.091 19.299 140.161C19.1095 140.23 18.9082 140.256 18.7083 140.237H17.5417V141.951C17.5488 141.999 17.5451 142.048 17.5308 142.094C17.5166 142.14 17.4922 142.182 17.4598 142.217C17.4273 142.251 17.3875 142.277 17.3439 142.292C17.3002 142.307 17.2537 142.31 17.2083 142.303C17.1663 142.303 17.1246 142.294 17.0862 142.276C17.0478 142.258 17.0135 142.231 16.9858 142.198C16.9581 142.164 16.9376 142.125 16.9257 142.083C16.9137 142.04 16.9106 141.995 16.9167 141.951L16.875 137.513Z" fill="white"/>
<path d="M23.4585 140.633L22.5418 138.304L21.7502 140.633H23.4585ZM20.7502 141.995L22.2502 137.601C22.2502 137.337 22.2502 137.205 22.6668 137.205C22.7752 137.203 22.8808 137.242 22.9647 137.314C23.0486 137.387 23.1055 137.488 23.1252 137.601L24.5835 141.995C24.5733 142.081 24.5337 142.159 24.4723 142.216C24.4108 142.273 24.3318 142.304 24.2502 142.303C24.1795 142.304 24.111 142.278 24.0574 142.229C24.0037 142.181 23.9686 142.113 23.9585 142.039L23.6252 141.073H21.6252L21.2918 142.039C21.2817 142.113 21.2466 142.181 21.193 142.229C21.1393 142.278 21.0708 142.304 21.0002 142.303C20.9228 142.303 20.8486 142.271 20.7939 142.213C20.7392 142.155 20.7085 142.077 20.7085 141.995" fill="white"/>
<path d="M28.1252 137.161C28.1668 137.155 28.2093 137.158 28.2496 137.171C28.29 137.183 28.3273 137.205 28.3589 137.234C28.3906 137.264 28.4159 137.3 28.4331 137.34C28.4503 137.381 28.4589 137.425 28.4585 137.469C28.4585 137.562 28.4234 137.652 28.3609 137.718C28.2984 137.784 28.2136 137.821 28.1252 137.821H26.9585V141.952C26.9656 142 26.9619 142.049 26.9477 142.095C26.9335 142.141 26.9091 142.183 26.8766 142.217C26.8441 142.251 26.8044 142.277 26.7607 142.292C26.717 142.307 26.6706 142.311 26.6252 142.303C26.5831 142.304 26.5414 142.295 26.503 142.276C26.4646 142.258 26.4304 142.232 26.4027 142.198C26.375 142.165 26.3544 142.125 26.3425 142.083C26.3306 142.04 26.3275 141.996 26.3335 141.952V137.821H25.1668C25.0784 137.821 24.9937 137.784 24.9311 137.718C24.8686 137.652 24.8335 137.562 24.8335 137.469C24.8331 137.425 24.8418 137.381 24.8589 137.34C24.8761 137.3 24.9014 137.264 24.9331 137.234C24.9648 137.205 25.0021 137.183 25.0424 137.171C25.0827 137.158 25.1252 137.155 25.1668 137.161H28.1252Z" fill="white"/>
<path d="M32.2917 138.788C32.2985 138.666 32.2801 138.545 32.2379 138.432C32.1957 138.32 32.1307 138.218 32.0474 138.134C31.9641 138.05 31.8646 137.987 31.7557 137.948C31.6467 137.909 31.5311 137.896 31.4167 137.909H30.2501V139.579H31.4167C31.5288 139.599 31.6437 139.592 31.7528 139.559C31.862 139.525 31.9625 139.466 32.0468 139.386C32.1311 139.305 32.1969 139.206 32.2393 139.094C32.2818 138.983 32.2997 138.863 32.2917 138.744V138.788ZM29.5834 142.084V137.689C29.5269 137.643 29.4881 137.578 29.4743 137.504C29.4605 137.43 29.4727 137.354 29.5085 137.289C29.5443 137.225 29.6013 137.176 29.6689 137.152C29.7364 137.129 29.8097 137.132 29.8751 137.161H31.4167C31.6144 137.136 31.8149 137.156 32.0045 137.22C32.194 137.284 32.3682 137.391 32.5148 137.533C32.6614 137.675 32.777 137.849 32.8536 138.043C32.9302 138.237 32.9659 138.446 32.9584 138.656C32.9762 138.965 32.8899 139.272 32.7146 139.521C32.5393 139.77 32.2863 139.946 32.0001 140.018L32.8751 141.864C32.8751 141.946 32.8444 142.024 32.7897 142.081C32.735 142.139 32.6608 142.172 32.5834 142.172C32.538 142.195 32.4881 142.207 32.4376 142.207C32.3871 142.207 32.3372 142.195 32.2917 142.172L31.3334 140.194H30.2084V141.996C30.2144 142.04 30.2114 142.084 30.1994 142.127C30.1875 142.17 30.167 142.209 30.1392 142.242C30.1115 142.276 30.0773 142.302 30.0389 142.321C30.0005 142.339 29.9588 142.348 29.9167 142.347C29.8714 142.355 29.8249 142.351 29.7812 142.336C29.7375 142.321 29.6978 142.295 29.6653 142.261C29.6328 142.227 29.6085 142.185 29.5942 142.139C29.58 142.093 29.5763 142.044 29.5834 141.996" fill="white"/>
<path d="M34.4166 137.645C34.4166 137.381 34.4166 137.249 34.7499 137.249C35.0833 137.249 35.0833 137.249 35.0833 137.645V142.039C35.0904 142.087 35.0867 142.136 35.0725 142.182C35.0582 142.228 35.0339 142.27 35.0014 142.305C34.9689 142.339 34.9292 142.364 34.8855 142.379C34.8418 142.395 34.7953 142.398 34.7499 142.391C34.7045 142.398 34.6581 142.395 34.6144 142.379C34.5707 142.364 34.531 142.339 34.4985 142.305C34.466 142.27 34.4417 142.228 34.4274 142.182C34.4132 142.136 34.4095 142.087 34.4166 142.039V137.645Z" fill="white"/>
</g>
<defs>
<clipPath id="clip0">
<rect width="52" height="179" fill="white"/>
</clipPath>
</defs>
</svg>
