<svg width="78" height="85" viewBox="0 0 78 85" fill="none" xmlns="http://www.w3.org/2000/svg">
<path d="M9.09842 75.0692H59.3831L56.9815 67.2598C57.3377 67.5715 77.5834 85 77.5834 85V8.76562C77.3436 4.02687 73.2811 0 68.2452 0L9.11605 0.010625C4.08371 0.010625 0 4.04458 0 8.78333V66.3C0 71.2973 4.07666 75.0692 9.09842 75.0692ZM46.2961 20.1273L46.1798 20.1698L46.2221 20.1273H46.2961ZM19.3853 24.6217C25.8494 19.8971 31.8409 20.1238 31.8409 20.1238L32.3241 20.6019C24.4141 22.4967 20.8276 26.0454 20.8276 26.0454C21.1944 25.9675 37.166 16.7131 56.5195 26.2792C56.5195 26.2792 52.926 22.9606 45.5027 20.8356L46.1586 20.1875C47.1848 20.191 52.6157 20.3823 58.4274 24.65C58.4274 24.65 64.9303 35.8062 64.9303 49.5125C64.7151 49.2504 60.8959 55.4129 51.0675 55.6254C51.0675 55.6254 49.403 53.7342 48.2181 52.0838C53.9663 50.4263 56.1175 47.1113 56.1175 47.1113C44.9278 54.1875 35.1206 53.0825 23.3879 48.3013C23.2786 48.3013 23.2292 48.2517 23.1728 48.195V48.1738C23.1163 48.1206 23.067 48.0675 22.9576 48.0675H22.746C22.0266 47.5929 21.547 47.3592 21.547 47.3592C21.547 47.3592 23.6947 50.6742 29.2137 52.3317C27.7643 53.9927 26.329 55.8804 26.329 55.8804C16.5041 55.6467 12.9212 49.4842 12.9212 49.4842C12.9212 35.7567 19.3853 24.6217 19.3853 24.6217Z" fill="white"/>
<path d="M46.9306 45.2303C49.4379 45.2303 51.4798 43.1053 51.4798 40.4845C51.4798 37.8813 49.4485 35.7563 46.9306 35.7563V35.767C44.4338 35.767 42.3884 37.8849 42.3813 40.5057C42.3813 43.1053 44.4232 45.2303 46.9306 45.2303Z" fill="white"/>
<path d="M30.6454 45.2303C33.1528 45.2303 35.1946 43.1053 35.1946 40.4845C35.1946 37.8813 33.1669 35.7563 30.6595 35.7563L30.6454 35.767C28.138 35.767 26.0962 37.8849 26.0962 40.5057C26.0962 43.1053 28.138 45.2303 30.6454 45.2303Z" fill="white"/>
</svg>
