<?xml version="1.0" encoding="utf-8"?>
<!-- Generator: Adobe Illustrator 25.0.0, SVG Export Plug-In . SVG Version: 6.00 Build 0)  -->
<svg version="1.1" id="Calque_1" xmlns="http://www.w3.org/2000/svg" xmlns:xlink="http://www.w3.org/1999/xlink" x="0px" y="0px"
	 viewBox="0 0 733.5 104" style="enable-background:new 0 0 733.5 104;" xml:space="preserve">
<style type="text/css">
	.st0{fill:#88F5DE;}
	.st1{fill:#3B7CFF;}
	.st2{fill:#8044FF;}
	.st3{fill:#FFFFFF;}
	.st4{fill:#4600DA;}
	.st5{fill:#06CCC0;}
	.st6{fill:#3A04AD;}
</style>
<path class="st0" d="M1693.5,0h-212v212h212V0z"/>
<path class="st1" d="M1648-0.1v85.7c0,16.1-6.4,31.5-17.8,42.8c-11.4,11.4-26.8,17.7-42.9,17.7s-31.5-6.4-42.9-17.7
	c-11.4-11.4-17.8-26.8-17.8-42.8V-0.1"/>
<g>
	<path class="st2" d="M209.7-0.5H104.8v104.9h104.9V-0.5z"/>
	<path class="st3" d="M157.3,12.9c-10.6,0-20.8,4.2-28.3,11.7s-11.8,17.7-11.8,28.3h40.1L157.3,12.9z"/>
	<path d="M197.3,53c0-10.6-4.2-20.8-11.7-28.4c-7.5-7.5-17.7-11.7-28.3-11.8v40.1L197.3,53z"/>
	<path class="st0" d="M157.2,93c5.3,0,10.5-1,15.3-3c4.9-2,9.3-5,13-8.7s6.7-8.1,8.7-13s3.1-10.1,3.1-15.3h-40.1L157.2,93z"/>
	<path class="st4" d="M117.2,52.9c0,10.6,4.2,20.8,11.7,28.4c7.5,7.5,17.7,11.7,28.3,11.8V53L117.2,52.9z"/>
</g>
<g>
	<path class="st3" d="M314.7-0.4H209.8v104.8h104.9V-0.4z"/>
	<path class="st1" d="M209.7,104.4c0-27.8,11.1-54.5,30.8-74.2s46.4-30.7,74.2-30.7v104.9L209.7,104.4z"/>
	<path class="st5" d="M228.3,35.1c10,0,18.1-8,18.1-17.8s-8.1-17.8-18.1-17.8s-18.1,8-18.1,17.8S218.3,35.1,228.3,35.1z"/>
</g>
<g>
	<g>
		<path class="st5" d="M104.9-0.5H0v104.9h104.9V-0.5z"/>
		<path class="st4" d="M22.4,104.4V60.1c0-7.9,3.2-15.6,8.8-21.2s13.3-8.8,21.2-8.8l0,0c8,0,15.6,3.2,21.2,8.8
			c5.6,5.6,8.8,13.2,8.8,21.2v44.2"/>
	</g>
	<path d="M32.8,104.3c0-2.6,0.5-5.1,1.5-7.5s2.4-4.5,4.2-6.3s4-3.2,6.3-4.2c2.4-1,4.9-1.5,7.5-1.5s5.1,0.5,7.5,1.5s4.5,2.4,6.3,4.2
		c1.8,1.8,3.3,4,4.2,6.3c1,2.4,1.5,4.9,1.5,7.5H32.8z"/>
</g>
<g>
	<path class="st3" d="M629.1,0.7H523.8v103.8h105.3V0.7z"/>
	<path class="st4" d="M629.1,49.3H523.8v6h105.3V49.3z"/>
	<path class="st4" d="M629.1,61.6H523.8v6h105.3V61.6z"/>
	<path class="st4" d="M629.1,73.9H523.8v6h105.3V73.9z"/>
	<path class="st4" d="M629.1,86.1H523.8v6h105.3V86.1z"/>
	<path class="st4" d="M629.1,98.5H523.8v5.9h105.3V98.5z"/>
	<path class="st4" d="M629.1,37H523.8v6h105.3V37z"/>
	<path class="st4" d="M629.1,24.8H523.8v6h105.3V24.8z"/>
	<path class="st4" d="M629.1,12.5H523.8v5.9h105.3V12.5z"/>
	<path class="st4" d="M629.1,0.2H523.8v5.9h105.3V0.2z"/>
</g>
<g>
	<path d="M314.5,104.4h104.9V-0.5H314.5V104.4z"/>
	<path class="st0" d="M398.9,52.8c0-17.7-14.3-32-32-32s-32,14.3-32,32s14.3,32,32,32C384.6,84.7,398.9,70.4,398.9,52.8z"/>
	<path class="st3" d="M382.3,52.8c0-8.5-6.9-15.4-15.4-15.4s-15.4,6.9-15.4,15.4s6.9,15.4,15.4,15.4
		C375.4,68.1,382.3,61.3,382.3,52.8z"/>
</g>
<g>
	<path class="st6" d="M419.2,104.4h104.9V-0.5H419.2L419.2,104.4z"/>
	<path class="st2" d="M471.7,24c29,0,52.5,27.9,52.5,27.9s-23.4,27.9-52.5,27.9c-29,0-52.5-27.8-52.5-27.8S442.7,24,471.7,24z"/>
	<path class="st3" d="M487,51.9c0-8.5-6.9-15.4-15.4-15.4s-15.4,6.9-15.4,15.4s6.9,15.4,15.4,15.4C480.1,67.2,487,60.4,487,51.9z"/>
</g>
<path d="M733.2,0.3H629.5V104h103.7V0.3z"/>
<path class="st5" d="M732.8,0.2c0,27.5-10.9,53.9-30.4,73.3c-19.4,19.4-45.8,30.4-73.3,30.4V0.2H732.8z"/>
</svg>
