<?xml version="1.0" encoding="UTF-8" standalone="no"?>
<!-- Created with Inkscape (http://www.inkscape.org/) -->

<svg
   width="115.60092mm"
   height="69.242111mm"
   viewBox="0 0 115.60092 69.242111"
   version="1.1"
   id="svg5"
   inkscape:version="1.1 (c4e8f9e, 2021-05-24)"
   sodipodi:docname="struct.svg"
   xmlns:inkscape="http://www.inkscape.org/namespaces/inkscape"
   xmlns:sodipodi="http://sodipodi.sourceforge.net/DTD/sodipodi-0.dtd"
   xmlns="http://www.w3.org/2000/svg"
   xmlns:svg="http://www.w3.org/2000/svg">
  <sodipodi:namedview
     id="namedview7"
     pagecolor="#ffffff"
     bordercolor="#666666"
     borderopacity="1.0"
     inkscape:pageshadow="2"
     inkscape:pageopacity="0.0"
     inkscape:pagecheckerboard="0"
     inkscape:document-units="mm"
     showgrid="false"
     inkscape:zoom="2.5293854"
     inkscape:cx="223.96745"
     inkscape:cy="122.75709"
     inkscape:window-width="1572"
     inkscape:window-height="749"
     inkscape:window-x="320"
     inkscape:window-y="141"
     inkscape:window-maximized="0"
     inkscape:current-layer="layer1"
     fit-margin-top="0"
     fit-margin-left="0"
     fit-margin-right="0"
     fit-margin-bottom="0" />
  <defs
     id="defs2" />
  <g
     inkscape:groupmode="layer"
     id="layer4"
     inkscape:label="networks 0"
     transform="translate(-48.869847,-10.346599)">
    <path
       style="fill:#f3f1f7;fill-opacity:1;stroke:none;stroke-width:0.264583px;stroke-linecap:butt;stroke-linejoin:miter;stroke-opacity:1"
       d="m 149.71714,39.892528 c -0.32042,0.08011 -0.65461,0.117652 -0.96127,0.240316 -0.14577,0.05831 -0.90381,0.423185 -0.96126,0.480634 -0.0567,0.05664 0.0566,0.183673 0,0.240315 -0.11329,0.113287 -0.33734,-0.07165 -0.48064,0 -0.58574,0.29287 -1.34674,0.577411 -1.92253,0.961266 -0.18852,0.12568 -0.26082,0.42568 -0.48063,0.480634 -0.79059,0.197647 -1.87897,-0.01452 -2.64348,0.240316 -1.06039,0.353465 -2.01573,0.499271 -3.12412,0.72095 -0.80243,0.160485 -1.60072,0.800777 -2.40316,0.961265 -0.23565,0.04713 -0.4853,-0.04713 -0.72095,0 -0.59931,0.119862 -0.70556,0.630585 -1.20158,0.961266 -0.62986,0.419904 -1.6989,0.899755 -2.40317,1.201581 -0.89374,0.383035 -1.79831,0.694484 -2.64348,1.201582 -0.49533,0.297198 -0.90868,0.739095 -1.44189,0.961265 -0.70088,0.292032 -2.49492,0.588616 -3.36443,0.961266 -1.42905,0.612447 -2.6049,1.847982 -4.08538,2.403166 -1.26162,0.473104 -2.60161,0.787098 -3.84507,1.201581 -0.22798,0.076 -0.4878,-0.05829 -0.72095,0 -0.57555,0.143891 -0.72179,0.801335 -1.20158,0.961266 -0.74343,0.247811 -1.48957,0.512418 -2.16285,0.961265 -1.04172,0.694484 -0.29513,2.993422 -0.72095,3.845065 -1.19484,2.389696 -1.20158,2.189377 -1.20158,5.28696 0,1.289346 -0.11321,2.848017 0.24032,4.085381 1.13899,3.986461 6.45837,8.056528 9.85297,10.09329 1.4506,0.870355 0.1023,-0.126113 1.20158,0.240316 0.33986,0.113287 0.62141,0.367348 0.96127,0.480632 1.73501,0.578336 4.53652,0.240318 6.24823,0.240318 5.83182,0 11.71679,-0.233053 17.5431,0 2.88804,0.11552 5.76423,0.577432 8.65139,0 2.32491,-0.464984 1.0875,-0.442606 3.36443,-1.201584 1.67614,-0.558713 2.92315,-0.469749 4.08538,-1.922531 0.15824,-0.197805 0.12703,-0.494377 0.24031,-0.72095 1.28916,-2.578314 0.96127,-5.556205 0.96127,-8.411075 0,-1.705499 0.21223,-3.589152 0,-5.28696 -0.3944,-3.15523 -1.84179,-6.727915 -3.60474,-9.37234 -1.66358,-2.49536 -3.80014,-4.551183 -5.52728,-6.969178 -0.48945,-0.685218 -3.3829,-2.532557 -4.08538,-2.883797 -0.242,-0.120999 -1.29669,-2.353056 -1.4419,-2.643481 z"
       id="path8617" />
    <path
       style="fill:#e0f7f2;fill-opacity:1;stroke:none;stroke-width:0.264583px;stroke-linecap:butt;stroke-linejoin:miter;stroke-opacity:1"
       d="m 102.3748,39.171578 c 0.7527,1.379373 1.1034,3.746881 2.16285,4.806328 0.66861,0.66861 0.55509,0.389239 0.96126,1.201584 0.33645,0.672886 1.34578,1.009327 1.68222,1.682216 0.30149,0.602982 0.55456,1.312476 0.96127,1.922531 0.24005,0.360087 0.75204,0.511728 0.96126,0.720947 0.30311,0.303112 0.34223,1.063183 0.72095,1.4419 0.0566,0.05664 0.18367,-0.05664 0.24032,0 0.26081,0.26081 0.0631,1.327838 0.24031,1.682215 0.24587,0.491726 0.47215,0.944301 0.72095,1.441898 0.0717,0.143298 -0.11328,0.367347 0,0.480634 0.0566,0.05664 0.18368,-0.05665 0.24032,0 0.0479,0.04787 0.24031,4.050863 0.24031,4.566012 0,1.562116 0.19131,3.222133 -0.48063,4.566013 -0.0717,0.143295 0.0717,0.337335 0,0.480631 -0.66632,1.332651 -5.72572,2.862863 -7.20949,3.604747 -1.02263,0.511315 -2.01562,1.125185 -3.12411,1.4419 -0.15576,0.0445 -0.964238,-0.02967 -1.201588,0 -3.8799,0.484986 -7.652604,0.112643 -11.535187,-0.240319 -2.284016,-0.207637 -4.510784,-0.37756 -6.72886,-0.961265 -2.106946,-0.554459 -4.73883,-1.739821 -6.728862,-2.403163 -2.405875,-0.80196 -1.258054,-0.05808 -2.883797,-0.961266 -1.915297,-1.064056 -0.880081,-0.586568 -3.124112,-2.403165 -7.143467,-5.782805 0.366786,0.421849 -5.527278,-4.085379 -2.077958,-1.589026 -2.331456,-2.27735 -4.566013,-4.325696 -2.198444,-2.015239 -2.654951,-1.965473 -4.325696,-3.845063 -0.678339,-0.763132 -1.436005,-2.139278 -1.682213,-3.124112 -0.07772,-0.310857 0.08431,-0.652135 0,-0.961266 -0.838007,-3.072688 -0.381646,-0.522973 -1.4419,-2.643481 -0.458655,-0.917313 -0.06688,-1.055349 -0.240316,-1.922531 -0.18388,-0.919404 -0.685527,-1.747333 -0.961266,-2.643482 -0.224623,-0.730027 -0.303508,-1.454345 -0.480634,-2.162849 -0.715621,-2.862488 -0.240315,-7.871989 -0.240315,-11.054555 0,-2.184007 -0.13248,-9.604443 2.403165,-11.294872 0.850792,-0.567196 3.914497,-2.035444 4.806328,-2.162848 0.396502,-0.05664 0.804148,0.04968 1.201582,0 0.29655,-0.03707 1.483084,-0.440807 1.682215,-0.480633 0.800052,-0.160011 1.86967,0.257937 2.643481,0 1.208754,-0.402919 2.516492,-0.221429 3.845063,0 1.632656,0.272109 3.145329,-0.229708 4.566012,0.480633 0.340003,0.170002 1.173935,-0.02765 1.441897,0.240316 0.05665,0.05664 -0.05664,0.183674 0,0.240317 0.346642,0.34664 1.706788,-0.228031 2.16285,0 0.791017,0.395508 1.358887,1.039918 2.162847,1.441898 0.301487,0.150744 2.693538,0.87515 3.124113,0.961266 0.183568,0.03671 0.764423,-0.09842 0.961265,0 0.59027,0.295134 1.353418,0.581855 1.922534,0.961266 0.393885,0.262591 0.147101,0.304034 0.480632,0.720949 0.545708,0.682136 1.136507,1.240395 1.682215,1.922531 0.718265,0.89783 1.071004,2.163642 1.682216,3.124114 0.578247,0.908677 1.284716,1.793061 1.922531,2.643481 0.307499,0.409999 0.259241,1.072914 0.480631,1.441898 0.659882,1.099802 1.354281,2.353721 2.16285,3.364429 0.420455,0.525571 1.038241,0.90369 1.441897,1.4419 0.285785,0.381045 0.695931,0.803579 0.961266,1.201582 0.140515,0.210772 0.0612,0.541829 0.240316,0.720949 0.857699,0.8577 3.563389,3.512453 4.566012,4.085379 1.370259,0.783005 3.959389,1.373073 4.806329,2.643481 z"
       id="path15750" />
  </g>
  <g
     inkscape:groupmode="layer"
     id="layer2"
     inkscape:label="networks"
     transform="translate(-48.869847,-10.346599)">
    <path
       style="fill:#dbe3e2;stroke:none;stroke-width:0.264583px;stroke-linecap:butt;stroke-linejoin:miter;stroke-opacity:1"
       d="m 142.73284,56.666733 -2.0198,2.917496 -0.78548,5.610567 3.0297,8.528063 11.78219,0.561057 3.59077,-7.630372 -0.67327,-7.854796 -5.16172,-2.805282 z"
       id="path6314" />
    <path
       style="opacity:0.5;fill:#dee3db;stroke:#dee3db;stroke-width:0.264583px;stroke-linecap:butt;stroke-linejoin:miter;stroke-opacity:1"
       d="m 105.25425,46.006654 c -2.37794,0.185759 -5.475026,-0.169579 -7.742585,0.448845 -0.713356,0.194553 -1.927074,0.74839 -2.58086,1.009904 -1.013637,0.405453 -1.898433,0.854178 -2.805284,1.458746 -0.393083,0.262056 -0.851384,0.70622 -1.234326,0.897691 -0.137938,0.06897 -0.316603,0.03287 -0.448845,0.112213 -0.658354,0.395012 -1.109165,1.078952 -1.68317,1.570958 -0.454562,0.389625 -0.963618,0.66331 -1.458749,1.009901 -0.253785,0.177652 -0.265083,0.354327 -0.448844,0.561057 -0.331494,0.372933 -0.990939,1.034666 -1.458749,1.346536 -0.09841,0.06561 -0.238217,0.0466 -0.336632,0.112212 -0.0322,0.02146 -0.08753,0.287277 -0.112212,0.336635 -0.155123,0.310245 -0.405934,0.587447 -0.561057,0.897689 -0.281749,0.563499 -0.07283,1.437193 0,2.019805 0.06751,0.54006 -0.03748,1.159235 0.112212,1.683171 0.261991,0.916966 1.221172,1.858497 1.907593,2.46865 0.356974,0.317309 0.844923,0.413668 1.234324,0.673269 0.622437,0.414957 1.119317,1.026295 1.795383,1.346536 0.385416,0.182565 0.821666,0.228984 1.234324,0.336632 0.738026,0.192529 2.331873,0.595733 3.029706,0.673269 1.585254,0.176139 3.229909,0.112213 4.825087,0.112213 0.935096,0 1.870194,0 2.805284,0 0.63587,0 1.28038,0.104534 1.90759,0 0.2686,-0.04477 0.51799,-0.173472 0.78548,-0.224425 0.64053,-0.122005 1.66882,-0.154149 2.35644,-0.448844 0.69862,-0.299411 1.41722,-1.293226 2.01981,-1.795381 1.2246,-1.020503 2.55234,-2.059771 2.91749,-3.702976 0.0811,-0.36513 -0.0207,-0.748652 0,-1.122114 0.0661,-1.188791 0.38871,-2.761281 0,-3.927398 -0.52917,-1.587532 -1.42683,-3.073966 -2.46865,-4.376243 -0.11683,-0.146036 -0.33201,-0.190595 -0.44884,-0.336632 -0.18954,-0.236926 -0.25534,-0.63968 -0.44885,-0.897691 -0.0952,-0.126953 -0.28645,-0.186087 -0.33663,-0.336635 -0.0237,-0.07097 0.0415,-0.162179 0,-0.224422 -0.17056,-0.255839 -0.98799,-0.66231 -1.23433,-0.785479 -0.24945,-0.12473 -0.47815,-0.494737 -0.56105,-0.561057 -0.17031,-0.136247 -0.37404,-0.224422 -0.56106,-0.336635 z"
       id="path6520" />
    <path
       style="fill:#d5ffd5;stroke:#d7f4d7;stroke-width:0.264583px;stroke-linecap:butt;stroke-linejoin:miter;stroke-opacity:1"
       d="m 118.49519,56.105676 c -0.35616,0.230785 -0.75133,0.05041 -1.12211,0.112212 -0.39763,0.06627 -1.69231,1.073624 -2.01981,1.346536 -0.16255,0.135456 -0.27086,0.334428 -0.44884,0.448845 -1.07732,0.692562 -2.62586,1.122685 -2.9175,2.580862 -0.0367,0.183388 0.0307,0.376581 0,0.561057 -0.16614,0.996833 -0.37116,2.114767 -0.22442,3.141916 0.13421,0.939525 0.11221,0.212402 0.11221,0.897692 0,1.562338 -0.0112,5.48432 0.89769,6.62047 0.2974,0.37175 0.69641,0.651621 1.0099,1.009901 0.0551,0.06295 0.0469,0.172175 0.11221,0.224422 0.93564,0.748509 2.58571,0.67327 3.70298,0.67327 2.0953,0 5.43524,0.03015 7.40595,-0.561057 0.38752,-0.116255 0.67845,-0.441254 1.0099,-0.673269 0.55248,-0.386731 1.49928,-1.050431 2.0198,-1.570959 0.97303,-0.973021 1.68838,-2.212903 2.58086,-3.254129 0.59837,-0.698097 1.32821,-1.311663 1.9076,-2.019805 1.01607,-1.241864 1.68011,-3.072037 2.0198,-4.600665 0.10133,-0.455969 0.14952,-0.286493 0.33664,-0.785479 0.33729,-0.899448 0.11799,-2.096738 -0.44885,-2.805284 -0.51558,-0.64447 -1.63945,-0.679477 -2.35644,-0.897689 -0.0801,-0.0244 -1.56559,-0.570283 -2.13201,-0.67327 -1.93563,-0.35193 -3.98806,-0.336634 -5.9472,-0.336634 -1.49965,0 -0.31598,-0.02977 -2.01981,0.112212 -1.2314,0.102616 -2.38002,-0.10042 -3.47855,0.448845 z"
       id="path7839" />
    <path
       style="fill:#edfce7;fill-opacity:1;stroke:#dbe3de;stroke-width:0.264583px;stroke-linecap:butt;stroke-linejoin:miter;stroke-opacity:1"
       d="m 69.346616,43.986849 c 0.913792,0.09384 1.798532,-0.26507 2.693072,-0.336632 0.521986,-0.04176 1.047845,0.02379 1.570958,0 1.107332,-0.05033 4.390851,-1.121209 5.273935,-1.683171 0.404809,-0.257606 2.012151,-1.52505 2.35644,-1.907593 0.180432,-0.200482 0.299227,-0.448847 0.448844,-0.673269 0.187018,-0.224422 0.362908,-0.458608 0.561057,-0.673267 0.593844,-0.643331 2.403216,-2.005885 2.580859,-2.805284 0.01529,-0.06886 -0.01225,-0.887489 0,-1.009901 0.105328,-1.053259 0.261102,-2.084446 0.336635,-3.14192 0.182623,-2.556724 0.326509,-6.893659 -0.561057,-9.20133 -0.1041,-0.270662 -0.412072,-0.824149 -0.561057,-1.122114 -0.198773,-0.397547 -2.634945,-2.074467 -3.029706,-2.356438 -0.849726,-0.606948 -2.166708,-1.888213 -3.141917,-2.132016 -0.980207,-0.245052 -2.140445,-0.112211 -3.141919,-0.112211 -2.132015,0 -4.26403,0 -6.396045,0 -2.556018,0 -4.879269,-0.269131 -7.181527,1.009902 -0.49393,0.274406 -0.941557,0.497559 -1.234327,1.009902 -0.865266,1.514221 -0.701288,3.815063 -1.122113,5.498356 -0.148492,0.593977 -0.366692,1.21229 -0.561057,1.795382 -0.121907,0.365724 -0.423389,0.642791 -0.561054,1.009903 -0.301263,0.803365 -0.247613,1.685038 -0.561057,2.468649 -0.238326,0.595813 -0.556745,1.154489 -0.67327,1.795381 -0.397605,2.186823 -0.224422,4.520194 -0.224422,6.732682 0,1.384954 -0.06827,2.556534 0.561057,3.815186 0.07481,0.149614 0.10614,0.330565 0.224422,0.448845 0.260784,0.260784 1.507239,1.032071 1.795381,1.122114 0.249909,0.0781 0.525676,-0.03247 0.785481,0 0.342183,0.04277 0.670963,0.160871 1.009902,0.224422 0.94089,0.176419 1.856107,0.181279 2.805284,0.224422 0.486249,0.0374 0.972497,0.07481 1.458746,0.112212 0.374039,0.07481 0.741884,0.194006 1.122114,0.224423 0.745693,0.05965 1.496152,0 2.244227,0 0.261827,0 0.534697,0.07524 0.785479,0 0.151998,-0.0456 0.224423,-0.224423 0.336635,-0.336635 z"
       id="path8190" />
    <path
       style="fill:#d5ffe6;stroke:#d5ffe6;stroke-width:0.264583px;stroke-linecap:butt;stroke-linejoin:miter;stroke-opacity:1"
       d="m 111.74714,10.573923 c -1.90464,-0.310911 -2.97545,0.190764 -4.56601,0.720949 -0.16021,0.0534 -0.62196,0.14133 -0.72095,0.240317 -0.78286,0.782866 -1.3171,1.557421 -2.16285,2.403164 -2.20689,2.206892 -3.36443,2.226381 -3.36443,5.767595 0,0.749808 -0.19116,1.996256 0.24032,2.64348 0.48773,0.731595 0.9415,1.071543 1.68221,1.441899 0.5596,0.279796 0.89104,0.904964 1.4419,1.201582 3.76065,2.024965 8.36186,2.64537 12.49646,3.364431 3.78863,0.658892 7.46504,1.103932 11.29487,0.720947 0.51355,-0.05135 1.70399,0.229431 2.16285,0 0.5834,-0.2917 0.24031,-2.738056 0.24031,-3.364429 0,-6.970344 -1.3717,-9.217087 -7.93044,-12.496454 -1.75312,-0.876562 -3.91335,-0.497705 -5.76759,-0.961266 -0.26839,-0.0671 -1.47019,0.21203 -1.68222,0 -0.0566,-0.05664 0.0717,-0.204492 0,-0.240316 -0.43534,-0.217671 -1.21975,-0.1247 -1.68221,-0.240317 -0.41004,-0.102508 -0.52031,-0.570464 -0.72095,-0.720949 -0.2866,-0.214946 -0.64085,-0.320422 -0.96127,-0.480633 z"
       id="path8515" />
    <path
       style="fill:none;stroke:#0000c0;stroke-width:0.264583px;stroke-linecap:butt;stroke-linejoin:miter;stroke-opacity:1"
       d="m 92.521827,40.132844 -10.09329,7.449809"
       id="path15449" />
  </g>
  <g
     inkscape:groupmode="layer"
     id="layer3"
     inkscape:label="links"
     transform="translate(-48.869847,-10.346599)">
    <path
       style="fill:none;stroke:#0000c0;stroke-width:0.264583px;stroke-linecap:butt;stroke-linejoin:miter;stroke-opacity:1"
       d="m 145.19276,46.617762 4.1073,13.759426 -6.36631,2.875105"
       id="path4094" />
    <path
       style="fill:none;stroke:#0000c0;stroke-width:0.264583px;stroke-linecap:butt;stroke-linejoin:miter;stroke-opacity:1"
       d="m 133.48698,60.582553 -8.70795,5.1733"
       id="path5804" />
    <path
       style="fill:none;stroke:#0000c0;stroke-width:0.264583px;stroke-linecap:butt;stroke-linejoin:miter;stroke-opacity:1"
       d="m 115.80211,61.716245 0.33664,8.079216"
       id="path5841" />
    <path
       style="fill:none;stroke:#0000c0;stroke-width:0.264583px;stroke-linecap:butt;stroke-linejoin:miter;stroke-opacity:1"
       d="m 124.77903,65.755853 -8.97692,-4.039608"
       id="path5843" />
    <path
       style="fill:none;stroke:#0000c0;stroke-width:0.264583px;stroke-linecap:butt;stroke-linejoin:miter;stroke-opacity:1"
       d="m 124.77903,65.755853 -8.64028,4.039608"
       id="path5845" />
    <path
       style="fill:none;stroke:#0000c0;stroke-width:0.264583px;stroke-linecap:butt;stroke-linejoin:miter;stroke-opacity:1"
       d="m 133.48698,60.582553 -17.68487,1.133692"
       id="path5847" />
    <path
       style="fill:none;stroke:#0000c0;stroke-width:0.264583px;stroke-linecap:butt;stroke-linejoin:miter;stroke-opacity:1"
       d="m 108.84323,59.350364 6.95888,2.365881"
       id="path5802" />
  </g>
  <g
     inkscape:label="Layer 1"
     inkscape:groupmode="layer"
     id="layer1"
     transform="translate(-48.869847,-10.346599)">
    <path
       style="fill:none;stroke:#0000c0;stroke-width:0.264583px;stroke-linecap:butt;stroke-linejoin:miter;stroke-opacity:1"
       d="M 67.670047,31.656803 H 80.739368"
       id="path914" />
    <path
       style="fill:none;stroke:#000000;stroke-width:0.264583px;stroke-linecap:butt;stroke-linejoin:miter;stroke-opacity:1"
       d="m 67.670047,31.656803 7.288027,8.80002"
       id="path1758" />
    <path
       style="fill:none;stroke:#0000c0;stroke-width:0.264583px;stroke-linecap:butt;stroke-linejoin:miter;stroke-opacity:1"
       d="M 65.922032,18.893542 67.670047,31.656803 78.860002,21.563282"
       id="path1760" />
    <path
       style="fill:none;stroke:#0000c0;stroke-width:0.264583px;stroke-linecap:butt;stroke-linejoin:miter;stroke-opacity:1"
       d="m 67.670047,31.656803 -8.114316,7.157103"
       id="path1762" />
    <path
       style="fill:none;stroke:#0000c0;stroke-width:0.264583px;stroke-linecap:butt;stroke-linejoin:miter;stroke-opacity:1;fill-opacity:1"
       d="M 127.53141,20.12573 104.9413,20.536459 80.739368,31.656803 104.53058,48.876772 86.869221,57.70745"
       id="path1799" />
    <path
       style="fill:none;stroke:#0000c0;stroke-width:0.264583px;stroke-linecap:butt;stroke-linejoin:miter;stroke-opacity:1"
       d="m 98.575002,60.582553 5.955578,-11.705781 4.31265,10.473594"
       id="path1801" />
    <path
       style="fill:none;stroke:#000000;stroke-width:0.264583px;stroke-linecap:butt;stroke-linejoin:miter;stroke-opacity:1"
       d="m 108.02177,15.607708 v 4.518021"
       id="path1951" />
    <path
       style="fill:none;stroke:#000000;stroke-width:0.264583px;stroke-linecap:butt;stroke-linejoin:miter;stroke-opacity:1"
       d="m 112.95052,20.593633 v 3.639388"
       id="path1953"
       sodipodi:nodetypes="cc" />
    <path
       style="fill:none;stroke:#000000;stroke-width:0.264583px;stroke-linecap:butt;stroke-linejoin:miter;stroke-opacity:1"
       d="m 117.46854,20.125729 0.20537,-4.723385"
       id="path1955" />
    <path
       style="fill:none;stroke:#000000;stroke-width:0.264583px;stroke-linecap:butt;stroke-linejoin:miter;stroke-opacity:1"
       d="m 123.62948,24.64375 -0.20536,-4.255482"
       id="path2027"
       sodipodi:nodetypes="cc" />
    <path
       style="fill:none;stroke:#0000c0;stroke-width:0.264583px;stroke-linecap:butt;stroke-linejoin:miter;stroke-opacity:1"
       d="M 108.84323,59.350364 98.575002,60.582553 86.869221,57.70745"
       id="path2142" />
    <path
       style="fill:none;stroke:#0000a6;stroke-width:0.264583px;stroke-linecap:butt;stroke-linejoin:miter;stroke-opacity:1;fill-opacity:1"
       d="m 127.53141,20.12573 17.66135,26.492032"
       id="path4088" />
    <path
       style="fill:#b7b60e;stroke:#0000c0;stroke-width:0.264583px;stroke-linecap:butt;stroke-linejoin:miter;stroke-opacity:1;fill-opacity:1"
       d="M 133.48698,60.582553 145.19276,46.617762"
       id="path4090" />
    <path
       style="fill:none;stroke:#0000c0;stroke-width:0.264583px;stroke-linecap:butt;stroke-linejoin:miter;stroke-opacity:1"
       d="m 151.55906,63.663022 -2.259,-3.285834"
       id="path4092" />
    <path
       style="fill:none;stroke:#0000c0;stroke-width:0.264583px;stroke-linecap:butt;stroke-linejoin:miter;stroke-opacity:1"
       d="m 142.93375,63.252291 0.41073,5.750211 4.51802,2.464375 4.31266,-0.821458 -0.6161,-6.982397"
       id="path4371" />
    <circle
       style="fill:#5fd3bc;stroke:none;stroke-width:3"
       id="path4700"
       cx="145.19276"
       cy="46.617764"
       r="0.92414063" />
    <circle
       style="fill:#5fd3bc;stroke:none;stroke-width:3"
       id="path4700-5"
       cx="108.4325"
       cy="59.350365"
       r="0.92414063" />
    <circle
       style="fill:#5fd3bc;stroke:none;stroke-width:3"
       id="path4700-58"
       cx="98.575005"
       cy="60.582554"
       r="0.92414063" />
    <circle
       style="fill:#5fd3bc;stroke:none;stroke-width:3"
       id="path4700-1"
       cx="86.663857"
       cy="57.707447"
       r="0.92414063" />
    <circle
       style="fill:#5fd3bc;stroke:none;stroke-width:3"
       id="path4700-4"
       cx="104.32521"
       cy="49.082134"
       r="0.92414063" />
    <circle
       style="fill:#5fd3bc;stroke:none;stroke-width:3"
       id="path4700-7"
       cx="117.67391"
       cy="15.402343"
       r="0.92414063" />
    <circle
       style="fill:#5fd3bc;stroke:none;stroke-width:3"
       id="path4700-13"
       cx="112.95052"
       cy="24.438385"
       r="0.92414063" />
    <circle
       style="fill:#5fd3bc;stroke:none;stroke-width:3"
       id="path4700-8"
       cx="108.02177"
       cy="15.813072"
       r="0.92414063" />
    <circle
       style="fill:#5fd3bc;stroke:none;stroke-width:3"
       id="path4700-48"
       cx="78.243912"
       cy="21.768646"
       r="0.92414063" />
    <circle
       style="fill:#5fd3bc;stroke:none;stroke-width:3"
       id="path4700-48-0"
       cx="67.551239"
       cy="31.755814"
       r="0.92414063" />
    <circle
       style="fill:#5fd3bc;stroke:none;stroke-width:3"
       id="path4700-0"
       cx="65.716667"
       cy="19.30427"
       r="0.92414063" />
    <circle
       style="fill:#5fd3bc;stroke:none;stroke-width:3"
       id="path4700-46"
       cx="74.34198"
       cy="40.251457"
       r="0.92414063" />
    <circle
       style="fill:#5fd3bc;stroke:none;stroke-width:3"
       id="path4700-03"
       cx="59.761097"
       cy="38.403175"
       r="0.92414063" />
    <circle
       style="fill:#5fd3bc;stroke:none;stroke-width:3"
       id="path4700-137"
       cx="147.9565"
       cy="71.16716"
       r="0.92414063" />
    <circle
       style="fill:#5fd3bc;stroke:none;stroke-width:3"
       id="path4700-88"
       cx="143.45023"
       cy="69.011993"
       r="0.92414063" />
    <circle
       style="fill:#5fd3bc;stroke:none;stroke-width:3"
       id="path4700-3"
       cx="152.07091"
       cy="70.579391"
       r="0.92414063" />
    <circle
       style="fill:#5fd3bc;stroke:none;stroke-width:3"
       id="path4700-81"
       cx="151.87498"
       cy="63.722027"
       r="0.92414063" />
    <circle
       style="fill:#5fd3bc;stroke:none;stroke-width:3"
       id="path4700-53"
       cx="142.86246"
       cy="63.134254"
       r="0.92414063" />
    <circle
       style="fill:#5fd3bc;stroke:none;stroke-width:3"
       id="path4700-54"
       cx="149.30006"
       cy="60.37719"
       r="0.92414063" />
    <circle
       style="fill:#5fd3bc;stroke:none;stroke-width:3"
       id="path4700-59"
       cx="92.400429"
       cy="40.051926"
       r="0.92414063" />
    <circle
       style="fill:#5fd3bc;stroke:none;stroke-width:3"
       id="path4700-59-73"
       cx="81.947906"
       cy="47.582657"
       r="0.92414063" />
    <circle
       style="fill:#5fd3bc;stroke:none;stroke-width:3"
       id="path4700-59-0"
       cx="116.47538"
       cy="69.571037"
       r="0.92414063" />
    <circle
       style="fill:#5fd3bc;stroke:none;stroke-width:3"
       id="path4700-59-7"
       cx="124.44239"
       cy="65.41922"
       r="0.92414063" />
    <circle
       style="fill:#5fd3bc;stroke:none;stroke-width:3"
       id="path4700-59-4"
       cx="116.02654"
       cy="61.828457"
       r="0.92414063" />
    <circle
       style="fill:#5fd3bc;stroke:none;stroke-width:3"
       id="path4700-549"
       cx="80.801003"
       cy="31.567013"
       r="0.92414063" />
    <circle
       style="fill:#5fd3bc;stroke:none;stroke-width:3"
       id="path4700-17"
       cx="104.68429"
       cy="20.682512"
       r="0.92414063" />
    <circle
       style="fill:#5fd3bc;stroke:none;stroke-width:3"
       id="path4700-55"
       cx="127.46319"
       cy="20.345877"
       r="0.92414063" />
    <circle
       style="fill:#5fd3bc;stroke:none;stroke-width:3"
       id="path4700-41"
       cx="123.82434"
       cy="24.882421"
       r="0.92414063" />
    <circle
       style="fill:#5fd3bc;stroke:none;stroke-width:3"
       id="path4700-883"
       cx="133.22871"
       cy="60.750965"
       r="0.92414063" />
  </g>
</svg>
