<svg width="81" height="77" viewBox="0 0 81 77" fill="none" xmlns="http://www.w3.org/2000/svg">
<path d="M13.5 31.3874C20.9558 31.3874 27 25.3433 27 17.8875C27 10.4316 20.9558 4.38745 13.5 4.38745C6.04416 4.38745 0 10.4316 0 17.8875C0 25.3433 6.04416 31.3874 13.5 31.3874Z" fill="#06CCC0"/>
<path d="M67.2954 31.3874C74.7513 31.3874 80.7954 25.3433 80.7954 17.8875C80.7954 10.4316 74.7513 4.38745 67.2954 4.38745C59.8396 4.38745 53.7954 10.4316 53.7954 17.8875C53.7954 25.3433 59.8396 31.3874 67.2954 31.3874Z" fill="#3B7CFF"/>
<path d="M45.3134 0.350586H37.4292V35.558H45.3134V0.350586Z" fill="#4600DA"/>
<path d="M41.2524 72.7332C48.7083 72.7332 54.7524 66.689 54.7524 59.2332C54.7524 51.7773 48.7083 45.7332 41.2524 45.7332C33.7966 45.7332 27.7524 51.7773 27.7524 59.2332C27.7524 66.689 33.7966 72.7332 41.2524 72.7332Z" fill="black"/>
<path d="M63.4556 76.9202H71.3398V41.7126H63.4556L63.4556 76.9202Z" fill="#4600DA"/>
<path d="M9.66022 76.9202H17.5444L17.5444 41.7126H9.66022L9.66022 76.9202Z" fill="#4600DA"/>
</svg>
