<svg width="67" height="67" viewBox="0 0 67 67" fill="none" xmlns="http://www.w3.org/2000/svg">
<path d="M58.0645 13.1318V7.24414L9.08185 7.24414V13.1318L58.0645 13.1318Z" fill="#0140BC"/>
<path d="M51.8214 7.24414V49.2761H9.08154V55.1638H58.0641V53.4409V49.2761V7.24414H51.8214Z" fill="#4600DA"/>
<path d="M54.3726 43.9453C61.2761 43.9453 66.8726 38.3489 66.8726 31.4453C66.8726 24.5418 61.2761 18.9453 54.3726 18.9453C47.469 18.9453 41.8726 24.5418 41.8726 31.4453C41.8726 38.3489 47.469 43.9453 54.3726 43.9453Z" fill="#06CCC0"/>
<path d="M28.1907 0.364746H0.407227V26.5684H28.1907V0.364746Z" fill="black"/>
<path d="M0 40.1118C0 47.1107 2.94795 53.823 8.19534 58.7719C13.4427 63.7209 20.5597 66.5012 27.9807 66.5012V40.1118H0Z" fill="#3B7CFF"/>
</svg>
