<svg width="77" height="86" viewBox="0 0 77 86" fill="none" xmlns="http://www.w3.org/2000/svg">
<path d="M53.1074 46.7183V40H21.9999V46.7183H53.1074Z" fill="#0140BC"/>
<path d="M38.1287 67.7708L43.0386 72.5212L65.0349 51.2392L60.125 46.4888L38.1287 67.7708Z" fill="#0140BC"/>
<path d="M17.9099 47.9999L13 52.7505L34.9964 74.0329L39.9062 69.2824L17.9099 47.9999Z" fill="#0140BC"/>
<path d="M39.9065 15.7505L34.9966 11L13.0002 32.282L17.9101 37.0325L39.9065 15.7505Z" fill="#0140BC"/>
<path d="M60.135 36.7505L65.0449 32L43.0486 10.7176L38.1387 15.4681L60.135 36.7505Z" fill="#0140BC"/>
<path d="M12 55C18.6274 55 24 49.6274 24 43C24 36.3726 18.6274 31 12 31C5.37258 31 0 36.3726 0 43C0 49.6274 5.37258 55 12 55Z" fill="black"/>
<path d="M64.0264 55C70.6538 55 76.0264 49.6274 76.0264 43C76.0264 36.3726 70.6538 31 64.0264 31C57.399 31 52.0264 36.3726 52.0264 43C52.0264 49.6274 57.399 55 64.0264 55Z" fill="#8044FF"/>
<path d="M38 85.4543C44.6274 85.4543 50 80.0818 50 73.4543C50 66.8269 44.6274 61.4543 38 61.4543C31.3726 61.4543 26 66.8269 26 73.4543C26 80.0818 31.3726 85.4543 38 85.4543Z" fill="#3B7CFF"/>
<path d="M38 24.481C44.6274 24.481 50 19.1084 50 12.481C50 5.85354 44.6274 0.480957 38 0.480957C31.3726 0.480957 26 5.85354 26 12.481C26 19.1084 31.3726 24.481 38 24.481Z" fill="#06CCC0"/>
</svg>
