<svg width="75" height="67" viewBox="0 0 75 67" fill="none" xmlns="http://www.w3.org/2000/svg">
<path d="M17.1465 66.0039C25.7069 66.0039 32.6465 59.0643 32.6465 50.5039C32.6465 41.9435 25.7069 35.0039 17.1465 35.0039C8.58607 35.0039 1.64648 41.9435 1.64648 50.5039C1.64648 59.0643 8.58607 66.0039 17.1465 66.0039Z" fill="#06CCC0"/>
<path d="M34.3254 0.490967H0V31.4375H34.3254V0.490967Z" fill="black"/>
<path d="M75.0003 31.4558C75.0003 14.3547 59.6306 0.490967 40.6748 0.490967V31.4558H75.0003Z" fill="#4600DA"/>
<path d="M74.9817 39.2288H40.6562V44.8618H74.9817V39.2288Z" fill="#3B7CFF"/>
<path d="M74.9817 47.6975H40.6562V53.3306H74.9817V47.6975Z" fill="#3B7CFF"/>
<path d="M74.9817 56.1653H40.6562V61.7983H74.9817V56.1653Z" fill="#3B7CFF"/>
</svg>
