<svg width="113" height="59" viewBox="0 0 113 59" fill="none" xmlns="http://www.w3.org/2000/svg">
<path d="M15.895 36C21.9702 36 26.895 31.0751 26.895 25C26.895 18.9249 21.9702 14 15.895 14C9.81989 14 4.89502 18.9249 4.89502 25C4.89502 31.0751 9.81989 36 15.895 36Z" fill="#3B7CFF"/>
<path d="M95.5488 36C101.624 36 106.549 31.0751 106.549 25C106.549 18.9249 101.624 14 95.5488 14C89.4737 14 84.5488 18.9249 84.5488 25C84.5488 31.0751 89.4737 36 95.5488 36Z" fill="#06CCC0"/>
<path d="M55.7295 22.509C61.8046 22.509 66.7295 17.5842 66.7295 11.509C66.7295 5.4339 61.8046 0.509033 55.7295 0.509033C49.6544 0.509033 44.7295 5.4339 44.7295 11.509C44.7295 17.5842 49.6544 22.509 55.7295 22.509Z" fill="black"/>
<path d="M33.3315 58.0918V53.4315C33.3202 49.4584 31.5611 45.6508 28.4386 42.8401C25.316 40.0295 21.0836 38.4443 16.6658 38.4307C12.2479 38.4443 8.01554 40.0295 4.89296 42.8401C1.77039 45.6508 0.0113505 49.4584 0 53.4315V58.0918H33.3315Z" fill="#4600DA"/>
<path d="M113 58.0918V53.4315C112.985 49.4572 111.223 45.6496 108.098 42.8393C104.973 40.0291 100.739 38.4443 96.3201 38.4307C91.9022 38.4443 87.6698 40.0295 84.5473 42.8401C81.4247 45.6508 79.6656 49.4584 79.6543 53.4315V58.0918H113Z" fill="#4600DA"/>
<path d="M75.4481 58.3242V42.8328C75.433 38.3163 73.4323 33.9886 69.8825 30.7937C66.3327 27.5989 61.522 25.7963 56.4999 25.7793C51.4779 25.7963 46.6672 27.5989 43.1174 30.7937C39.5676 33.9886 37.5669 38.3163 37.5518 42.8328V58.3242H75.4481Z" fill="#4600DA"/>
</svg>
