<?xml version="1.0" encoding="utf-8"?>
<!-- Generator: Adobe Illustrator 25.0.0, SVG Export Plug-In . SVG Version: 6.00 Build 0)  -->
<svg version="1.1" id="Calque_1" xmlns="http://www.w3.org/2000/svg" xmlns:xlink="http://www.w3.org/1999/xlink" x="0px" y="0px"
	 viewBox="0 0 630.3 212" style="enable-background:new 0 0 630.3 212;" xml:space="preserve">
<style type="text/css">
	.st0{fill:#FFFFFF;}
	.st1{fill:#4600DA;}
	.st2{fill:#88F5DE;}
	.st3{fill:#3B7CFF;}
	.st4{fill:#8044FF;}
	.st5{fill:#06CCC0;}
	.st6{fill:#3A04AD;}
</style>
<g>
	<path class="st0" d="M314.6,105.4H209.3v103.8h105.3V105.4z"/>
	<path class="st1" d="M314.6,154.5H209.3v6h105.3V154.5z"/>
	<path class="st1" d="M314.6,142.2H209.3v6h105.3V142.2z"/>
	<path class="st1" d="M314.6,129.9H209.3v6h105.3V129.9z"/>
	<path class="st1" d="M314.6,117.7H209.3v6h105.3V117.7z"/>
	<path class="st1" d="M314.6,105.4H209.3v5.9h105.3V105.4z"/>
	<path class="st1" d="M314.6,166.8H209.3v6h105.3V166.8z"/>
	<path class="st1" d="M314.6,179H209.3v6h105.3V179z"/>
	<path class="st1" d="M314.6,191.5H209.3v5.9h105.3V191.5z"/>
	<path class="st1" d="M314.6,203.8H209.3v5.9h105.3V203.8z"/>
</g>
<path class="st2" d="M1693.5,0.9h-212v212h212V0.9z"/>
<path class="st3" d="M1648,0.9v85.7c0,16.1-6.4,31.5-17.8,42.8c-11.4,11.4-26.8,17.7-42.9,17.7c-16.1,0-31.5-6.4-42.9-17.7
	c-11.4-11.4-17.8-26.8-17.8-42.8V0.9"/>
<g>
	<path class="st4" d="M209.7,0.5l-104.9,0l0,104.9l104.9,0L209.7,0.5z"/>
	<path class="st0" d="M157.3,13.8c-10.6,0-20.8,4.2-28.3,11.7c-7.5,7.5-11.8,17.7-11.8,28.3l40.1,0L157.3,13.8z"/>
	<path d="M197.3,53.9c0-10.6-4.2-20.8-11.7-28.4c-7.5-7.5-17.7-11.7-28.3-11.8l0,40.1L197.3,53.9z"/>
	<path class="st2" d="M157.2,94c5.3,0,10.5-1,15.3-3c4.9-2,9.3-5,13-8.7c3.7-3.7,6.7-8.1,8.7-13c2-4.9,3.1-10.1,3.1-15.3l-40.1,0
		L157.2,94z"/>
	<path class="st1" d="M117.2,53.9c0,10.6,4.2,20.8,11.7,28.4c7.5,7.5,17.7,11.7,28.3,11.8l0-40.1L117.2,53.9z"/>
</g>
<g>
	<path class="st0" d="M314.7,0.5l-104.9,0l0,104.8l104.9,0L314.7,0.5z"/>
	<path class="st3" d="M209.7,105.3c0-27.8,11.1-54.5,30.8-74.2c19.7-19.7,46.4-30.7,74.2-30.7l0,104.9L209.7,105.3z"/>
	<path class="st5" d="M228.3,36c10,0,18.1-8,18.1-17.8s-8.1-17.8-18.1-17.8c-10,0-18.1,8-18.1,17.8S218.3,36,228.3,36z"/>
</g>
<g>
	<g>
		<path class="st5" d="M104.9,0.5L0,0.4l0,104.9l104.9,0L104.9,0.5z"/>
		<path class="st1" d="M22.4,105.4l0-44.3c0-7.9,3.2-15.6,8.8-21.2c5.6-5.6,13.3-8.8,21.2-8.8l0,0c8,0,15.6,3.2,21.2,8.8
			c5.6,5.6,8.8,13.2,8.8,21.2l0,44.2"/>
	</g>
	<path d="M32.8,105.3c0-2.6,0.5-5.1,1.5-7.5c1-2.4,2.4-4.5,4.2-6.3c1.8-1.8,4-3.2,6.3-4.2c2.4-1,4.9-1.5,7.5-1.5
		c2.6,0,5.1,0.5,7.5,1.5c2.4,1,4.5,2.4,6.3,4.2c1.8,1.8,3.3,4,4.2,6.3c1,2.4,1.5,4.9,1.5,7.5L32.8,105.3z"/>
</g>
<g>
	<path d="M-0.1,210.3l104.9,0l0-104.9L0,105.4L-0.1,210.3z"/>
	<path class="st2" d="M52.4,125.1c-17.7,0-32,14.3-32,32c0,17.7,14.3,32,32,32c17.7,0,32-14.3,32-32
		C84.4,139.4,70.1,125.1,52.4,125.1z"/>
	<path class="st0" d="M52.4,141.7c-8.5,0-15.4,6.9-15.4,15.4c0,8.5,6.9,15.4,15.4,15.4c8.5,0,15.4-6.9,15.4-15.4
		C67.8,148.6,60.9,141.7,52.4,141.7z"/>
</g>
<g>
	<path class="st6" d="M104.7,210.3l104.9,0l0-104.9l-104.9,0L104.7,210.3z"/>
	<path class="st4" d="M104.8,157.9c0,0,23.4-27.9,52.5-27.8c29,0,52.5,27.9,52.5,27.9s-23.5,27.9-52.5,27.9
		C128.2,185.9,104.8,157.9,104.8,157.9z"/>
	<path class="st0" d="M157.1,142.6c-8.5,0-15.4,6.9-15.4,15.4c0,8.5,6.9,15.4,15.4,15.4c8.5,0,15.4-6.9,15.4-15.4
		C172.5,149.5,165.6,142.6,157.1,142.6z"/>
</g>
<g>
	<path class="st0" d="M629.1,1.6H523.8v103.8h105.3V1.6z"/>
	<path class="st1" d="M629.1,50.3H523.8v6h105.3V50.3z"/>
	<path class="st1" d="M629.1,62.5H523.8v6h105.3V62.5z"/>
	<path class="st1" d="M629.1,74.8H523.8v6h105.3V74.8z"/>
	<path class="st1" d="M629.1,87.1H523.8v6h105.3V87.1z"/>
	<path class="st1" d="M629.1,99.5H523.8v5.9h105.3V99.5z"/>
	<path class="st1" d="M629.1,38H523.8v6h105.3V38z"/>
	<path class="st1" d="M629.1,25.7H523.8v6h105.3V25.7z"/>
	<path class="st1" d="M629.1,13.4H523.8v5.9h105.3V13.4z"/>
	<path class="st1" d="M629.1,1.1H523.8V7h105.3V1.1z"/>
</g>
<g>
	<path class="st4" d="M524.2,105.4l-104.9,0l0,104.9l104.9,0L524.2,105.4z"/>
	<path class="st0" d="M471.7,156.9l-40.1,0c0,10.6,4.2,20.8,11.8,28.3c7.5,7.5,17.7,11.7,28.3,11.7L471.7,156.9z"/>
	<path d="M471.7,156.9l0,40.1c10.6,0,20.8-4.2,28.3-11.8c7.5-7.5,11.7-17.7,11.7-28.4L471.7,156.9z"/>
	<path class="st2" d="M471.7,156.9l40.1,0c0-5.3-1-10.5-3.1-15.3c-2-4.9-5-9.3-8.7-13c-3.7-3.7-8.1-6.7-13-8.7c-4.9-2-10.1-3-15.3-3
		L471.7,156.9z"/>
	<path class="st1" d="M471.7,156.9l0-40.1c-10.6,0-20.8,4.2-28.3,11.8c-7.5,7.5-11.7,17.7-11.7,28.4L471.7,156.9z"/>
</g>
<g>
	<path class="st0" d="M629.1,105.4l-104.9,0l0,104.8l104.9,0L629.1,105.4z"/>
	<path class="st3" d="M629.1,105.4l0,104.9c-27.8,0-54.5-11-74.2-30.7c-19.7-19.7-30.7-46.3-30.8-74.2L629.1,105.4z"/>
	<path class="st5" d="M524.7,192.6c0,9.8,8.1,17.8,18.1,17.8c10,0,18.1-8,18.1-17.8c0-9.8-8.1-17.8-18.1-17.8
		C532.8,174.7,524.7,182.7,524.7,192.6z"/>
</g>
<g>
	<g>
		<path class="st5" d="M419.3,105.4l-104.9,0l0,104.9l104.9,0L419.3,105.4z"/>
		<path class="st1" d="M396.8,105.5l0,44.2c0,8-3.2,15.6-8.8,21.2c-5.6,5.6-13.3,8.8-21.2,8.8l0,0c-8,0-15.6-3.2-21.2-8.8
			c-5.6-5.6-8.8-13.2-8.8-21.2l0-44.3"/>
	</g>
	<path d="M386.4,105.5c0,2.6-0.5,5.1-1.5,7.5c-1,2.4-2.4,4.5-4.2,6.3c-1.8,1.8-4,3.3-6.3,4.2c-2.4,1-4.9,1.5-7.5,1.5
		c-2.6,0-5.1-0.5-7.5-1.5c-2.4-1-4.5-2.4-6.3-4.2c-1.8-1.8-3.3-4-4.2-6.3c-1-2.4-1.5-4.9-1.5-7.5L386.4,105.5z"/>
</g>
<g>
	<path d="M314.5,105.4l104.9,0l0-104.9l-104.9,0L314.5,105.4z"/>
	<path class="st2" d="M398.9,53.7c0-17.7-14.3-32-32-32c-17.7,0-32,14.3-32,32c0,17.7,14.3,32,32,32
		C384.6,85.7,398.9,71.4,398.9,53.7z"/>
	<path class="st0" d="M382.3,53.7c0-8.5-6.9-15.4-15.4-15.4c-8.5,0-15.4,6.9-15.4,15.4c0,8.5,6.9,15.4,15.4,15.4
		C375.4,69.1,382.3,62.2,382.3,53.7z"/>
</g>
<g>
	<path class="st6" d="M419.2,105.4l104.9,0l0-104.9l-104.9,0L419.2,105.4z"/>
	<path class="st4" d="M471.7,24.9c29,0,52.5,27.9,52.5,27.9s-23.4,27.9-52.5,27.9c-29,0-52.5-27.8-52.5-27.8S442.7,24.9,471.7,24.9z
		"/>
	<path class="st0" d="M487,52.8c0-8.5-6.9-15.4-15.4-15.4c-8.5,0-15.4,6.9-15.4,15.4c0,8.5,6.9,15.4,15.4,15.4S487,61.3,487,52.8z"
		/>
</g>
</svg>
