<?xml version="1.0" encoding="utf-8"?>
<!-- Generator: Adobe Illustrator 25.0.0, SVG Export Plug-In . SVG Version: 6.00 Build 0)  -->
<svg version="1.1" id="Calque_1" xmlns="http://www.w3.org/2000/svg" xmlns:xlink="http://www.w3.org/1999/xlink" x="0px" y="0px"
	 viewBox="0 0 847.9 423.6" style="enable-background:new 0 0 847.9 423.6;" xml:space="preserve">
<style type="text/css">
	.st0{fill:#4600DA;}
	.st1{fill:#FFFFFF;}
	.st2{fill:#06CCC0;}
	.st3{fill:#3A04AD;}
	.st4{fill:#88F5DE;}
	.st5{fill:#3B7CFF;}
	.st6{fill:#8044FF;}
</style>
<path class="st0" d="M423.9,0h-212v211.9h212V0z"/>
<path class="st1" d="M635.9,0h-212v211h212V0z"/>
<path class="st2" d="M847.9,0h-212v212h212V0z"/>
<path class="st1" d="M423.9,212.2h-212v211.9h212V212.2z"/>
<path class="st3" d="M635.9,212h-212v212h212V212z"/>
<path class="st4" d="M847.9,212h-212v212h212V212z"/>
<path class="st5" d="M802.5,211.9v85.7c0,16.1-6.4,31.5-17.8,42.8c-11.4,11.4-26.8,17.7-42.9,17.7c-16.1,0-31.5-6.4-42.9-17.7
	c-11.4-11.4-17.8-26.8-17.8-42.8v-85.7"/>
<path class="st0" d="M681.2,212.1v-89.5c0-16.1,6.4-31.5,17.8-42.8c11.4-11.4,26.8-17.7,42.9-17.7l0,0c16.1,0,31.5,6.4,42.9,17.7
	c11.4,11.4,17.8,26.8,17.8,42.8v89.3"/>
<path class="st4" d="M317.9,172.2c35.7,0,64.6-28.9,64.6-64.6c0-35.7-28.9-64.6-64.6-64.6c-35.7,0-64.6,28.9-64.6,64.6
	C253.3,143.2,282.2,172.2,317.9,172.2z"/>
<path class="st1" d="M317.9,138.6c17.1,0,31.1-13.9,31.1-31c0-17.1-13.9-31-31.1-31c-17.1,0-31.1,13.9-31.1,31
	C286.9,124.7,300.8,138.6,317.9,138.6z"/>
<path class="st6" d="M635.9,317.9c0,0-47.3,56.3-106,56.3s-106-56.4-106-56.4s47.5-56.4,106-56.4S635.9,317.9,635.9,317.9z"/>
<path class="st0" d="M636,99.8h-212v12.3h212V99.8z"/>
<path class="st0" d="M636,74.8h-212v12.3h212V74.8z"/>
<path class="st0" d="M636,49.9h-212v12.3h212V49.9z"/>
<path class="st0" d="M636,24.9h-212v12.3h212V24.9z"/>
<path class="st0" d="M635.9,0h-212v12h212V0z"/>
<path class="st0" d="M636,124.8h-212V137h212V124.8z"/>
<path class="st0" d="M636,149.7h-212V162h212V149.7z"/>
<path class="st0" d="M635.9,175h-212v12h212V175z"/>
<path class="st0" d="M635.9,200h-212v12h212V200z"/>
<g>
	<path class="st6" d="M211.9,212.1h-212v212h212V212.1z"/>
	<path class="st1" d="M105.9,239.1c-21.5,0-42.1,8.5-57.3,23.7c-15.2,15.2-23.7,35.8-23.7,57.3h81V239.1z"/>
	<path d="M186.9,320.1c0-21.5-8.5-42.1-23.7-57.3c-15.2-15.2-35.8-23.7-57.3-23.7v81H186.9z"/>
	<path class="st4" d="M105.9,401.1c10.6,0,21.2-2.1,31-6.2c9.8-4.1,18.8-10,26.3-17.6c7.5-7.5,13.5-16.5,17.6-26.3
		c4.1-9.8,6.2-20.4,6.2-31h-81V401.1z"/>
	<path class="st0" d="M24.9,320.1c0,21.5,8.5,42.1,23.7,57.3c15.2,15.2,35.8,23.7,57.3,23.7v-81H24.9z"/>
</g>
<path class="st1" d="M530,348.9c17.2,0,31.1-13.9,31.1-31c0-17.1-13.9-31-31.1-31c-17.1,0-31.1,13.9-31.1,31
	C499,335,512.9,348.9,530,348.9z"/>
<path class="st5" d="M211.9,424.1c0-56.2,22.3-110.1,62.1-149.9c39.8-39.8,93.7-62.1,149.9-62.1v212H211.9z"/>
<g>
	<path d="M211.9-0.1h-212v212h212V-0.1z"/>
	<path class="st2" d="M211.9-0.1c0,56.2-22.3,110.1-62.1,149.9c-39.8,39.8-93.7,62.1-149.9,62.1v-212H211.9z"/>
</g>
<path class="st2" d="M249.4,284c20.2,0,36.5-16.1,36.5-36s-16.3-36-36.5-36s-36.5,16.1-36.5,36S229.3,284,249.4,284z"/>
<path class="st1" d="M781.3,211.9c0,5.2-1,10.3-3,15.1c-2,4.8-4.9,9.1-8.6,12.8c-3.7,3.7-8,6.6-12.8,8.5c-4.8,2-9.9,3-15.1,3
	c-10.5,0-20.5-4.2-27.9-11.6c-7.4-7.4-11.6-17.4-11.6-27.9"/>
<path d="M702.4,211.9c0-5.2,1-10.3,3-15.1c2-4.8,4.9-9.1,8.6-12.8c3.7-3.7,8-6.6,12.8-8.6c4.8-2,9.9-3,15.1-3c5.2,0,10.3,1,15.1,3
	c4.8,2,9.1,4.9,12.8,8.6c3.7,3.7,6.6,8,8.6,12.8c2,4.8,3,9.9,3,15.1H702.4z"/>
</svg>
