<svg width="75" height="76" viewBox="0 0 75 76" fill="none" xmlns="http://www.w3.org/2000/svg">
<path d="M72.8814 0H1.94888C0.872411 0 0 0.876158 0 1.95725V73.8289C0 74.9101 0.872411 75.7861 1.94888 75.7861H25.5291V75.7689C26.5933 75.7567 27.4087 75.1583 27.4462 74.1458C27.5429 71.5141 27.4746 68.8768 27.4746 66.3325C25.5754 66.4215 23.7623 66.6625 21.9697 66.5587C18.0159 66.33 14.9776 64.6357 13.4019 60.7475C12.4685 58.444 11.0621 56.4738 8.8717 55.1591C8.46266 54.9134 8.10503 54.5516 7.79205 54.1841C7.38301 53.7049 7.45953 53.2126 8.10583 53.081C8.75785 52.9479 9.47018 52.8549 10.1132 52.9756C12.6385 53.4516 14.3847 55.0423 15.7215 57.1579C18.3646 61.3433 22.4331 62.6246 27.0103 60.6917C27.2655 60.5839 27.5899 60.3227 27.638 60.0843C28.0071 58.2315 28.6966 56.5422 30.086 55.0611C28.5413 54.7737 27.1104 54.5622 25.7071 54.2355C21.6663 53.2965 18.0362 51.6071 15.3816 48.2519C13.2158 45.515 12.2254 42.3111 11.7702 38.9012C11.0572 33.5603 11.6954 28.5609 15.3475 24.2928C15.532 24.0772 15.6321 23.6355 15.55 23.3669C14.6353 20.3654 14.7751 17.3891 15.6816 14.4211C16.1573 12.8623 16.2898 12.7847 17.8736 13.0019C17.9704 13.015 18.0646 13.0394 18.1607 13.0558C21.3355 13.5833 24.0681 15.1272 26.76 16.7848C27.1219 17.0078 27.6731 17.1465 28.0707 17.0494C34.5001 15.4825 40.9173 15.4891 47.346 17.0551C47.7191 17.1457 48.2176 17.0167 48.5744 16.829C50.0379 16.0606 51.4387 15.1674 52.9209 14.4389C54.6453 13.5923 56.4616 12.9553 58.417 12.9904C58.7592 12.9969 59.2886 13.3252 59.4031 13.6289C60.5796 16.7595 60.8276 19.9496 59.8901 23.2076C59.7901 23.5554 59.9389 24.0511 60.1251 24.3939C61.0504 26.0989 62.3422 27.6723 62.9277 29.4808C64.7123 34.9931 64.0619 40.4516 61.6325 45.6324C59.4064 50.3813 55.2779 52.7876 50.3908 54.0288C48.7403 54.4478 47.0493 54.7024 45.2688 55.0536C47.6021 57.5016 47.968 60.4891 47.9265 63.618C47.8835 66.8456 47.8949 70.0742 47.8932 73.3027C47.8924 74.8664 48.572 75.7302 49.7582 75.7808C49.7574 75.7857 74.8296 75.7857 74.8296 75.7857V1.95725C74.8294 0.876158 73.9571 0 72.8814 0Z" fill="white"/>
</svg>
