<?xml version="1.0" encoding="utf-8"?>
<!-- Generator: Adobe Illustrator 24.1.2, SVG Export Plug-In . SVG Version: 6.00 Build 0)  -->
<svg version="1.1" id="b6aa0626-c548-43ac-b721-fcff4f949bc4"
	 xmlns="http://www.w3.org/2000/svg" xmlns:xlink="http://www.w3.org/1999/xlink" x="0px" y="0px" viewBox="0 0 497 295"
	 style="enable-background:new 0 0 497 295;" xml:space="preserve">
<style type="text/css">
	.st0{fill:#F2F2F2;}
	.st1{fill:#2F2E41;}
	.st2{fill:#FFB7B7;}
	.st3{fill:#6C63FF;}
	.st4{fill:#3F3D56;}
	.st5{fill:#FFFFFF;}
	.st6{fill:#F1F1F1;}
	.st7{opacity:0.1;enable-background:new    ;}
	.st8{fill:#CBCBCB;}
</style>
<path class="st0" d="M54.6,235.4c-8.9,7.6-10.7,20-10.7,20s12.5,0.1,21.4-7.4c8.9-7.6,10.7-20,10.7-20S63.5,227.8,54.6,235.4z"/>
<path class="st0" d="M58.7,238.4c-3.8,11-14.6,17.3-14.6,17.3s-4.7-11.6-1-22.6c3.8-11,14.6-17.3,14.6-17.3S62.5,227.3,58.7,238.4z"
	/>
<path class="st1" d="M151.3,75.2c-2-2.6-4.8-5-5-8.2c-0.2-2.9,2-5.9,1.1-8.7c-0.7-2.2-3.1-3.5-5.4-4.2c-4.4-1.3-9.1-1.1-13.4,0.5
	l0.2-0.2c-2.6-0.9-5.7,0-7.7,1.8c-2.1,1.8-3.3,4.2-4.2,6.7c-0.9,2.5-1.7,5-3,7.3c-1.3,2.3-3.3,4.4-6,5.2c0.9,1.8,3.7,2.4,5.3,1.2
	c0.4-0.3,0.8-0.7,1.1-1.2c1.1-1.3,2.2-2.6,3.3-4c1.1,2-0.6,4.7,0.8,6.6c0.7,1,2,1.3,3.2,1.6c9.4,2,19.2,1.6,28.4-1.1
	c0.7-0.2,1.6-0.5,1.9-1.2C152.3,76.8,151.8,75.9,151.3,75.2z"/>
<path class="st2" d="M178,85.4c-0.1,0.3-0.1,0.5-0.1,0.8L157.3,98l-5-2.9l-5.3,7l8.4,6c1.4,1,3.3,0.9,4.6-0.1l21.2-16.7
	c2.6,1,5.5-0.4,6.5-3c1-2.6-0.4-5.5-3-6.5c-2.6-1-5.5,0.4-6.5,3C178.1,85,178,85.2,178,85.4z"/>
<path class="st3" d="M156.6,98.6l-6.6,8.6c-0.7,0.9-2.1,1.1-3,0.4c-0.1-0.1-0.2-0.1-0.2-0.2l-7.5-7.8c-2.6-2-3.1-5.8-1-8.4
	c2-2.6,5.8-3.1,8.4-1.1l9.4,5.3c1,0.6,1.4,1.9,0.8,2.9C156.7,98.4,156.7,98.5,156.6,98.6L156.6,98.6z"/>
<polygon class="st2" points="147.5,248.8 153.3,248.8 156.1,226.1 147.5,226.1 "/>
<path class="st1" d="M146,246.8l11.6,0h0c4.1,0,7.4,3.3,7.4,7.4v0.2l-18.9,0L146,246.8z"/>
<polygon class="st2" points="107.2,248.8 113.1,248.8 115.9,226.1 107.2,226.1 "/>
<path class="st1" d="M105.7,246.8l11.6,0h0c4.1,0,7.4,3.3,7.4,7.4v0.2l-18.9,0L105.7,246.8z"/>
<circle class="st2" cx="133.8" cy="70.9" r="10.1"/>
<path class="st1" d="M139.8,86.1l6,3c0,0,6.7,11.6,2.8,22.6c-1.9,5.3,3.4,22.4,3.4,22.4s8.1,77.2,8.1,101.1
	c-10.1,1.6-19.7,3.5-20.1-1.3c-0.5-4.8-5.7-61.4-5.7-61.4s-7.2,62.9-13,63.8c-5.7,1-17.2-0.5-17.2-0.5s9.1-92.1,15.4-97.8l1-4.8
	l0-43l7.2-3.4L139.8,86.1z"/>
<path class="st2" d="M118.4,151.4c2.5-1.4,3.4-4.5,2.1-7c-0.1-0.3-0.3-0.5-0.5-0.8l7-46.3l-9.1-0.4l-5.4,46.2
	c-2.1,1.9-2.3,5.2-0.3,7.3C113.7,152.1,116.3,152.6,118.4,151.4L118.4,151.4z"/>
<path class="st3" d="M126.7,108.9l-10.9-0.7c-1.2-0.1-2.1-1.1-2-2.3c0-0.1,0-0.2,0-0.3l2.3-10.6c0.2-3.3,3.1-5.8,6.4-5.6
	c3.3,0.2,5.8,3.1,5.6,6.4l0.9,10.8c0.1,1.2-0.8,2.2-2,2.3C126.9,108.9,126.8,108.9,126.7,108.9L126.7,108.9z"/>
<path class="st4" d="M427,65H186.7c-3.7,0-6.6,3-6.6,6.6v133.9c0,3.7,3,6.6,6.6,6.6H427c3.7,0,6.6-3,6.6-6.6V71.6
	C433.6,68,430.6,65,427,65L427,65L427,65z"/>
<rect x="189" y="76.7" class="st5" width="235.7" height="133"/>
<circle class="st5" cx="306.7" cy="70.6" r="2.4"/>
<polygon class="st0" points="357.3,209.7 189,209.7 189,76.7 "/>
<path class="st4" d="M440.2,207.2h-23v-1.7c0-0.2-0.1-0.3-0.3-0.3c0,0,0,0,0,0H409c-0.2,0-0.3,0.1-0.3,0.3l0,0v1.7h-4.9v-1.7
	c0-0.2-0.1-0.3-0.3-0.3h0h-7.9c-0.2,0-0.3,0.1-0.3,0.3v0l0,0v1.7h-4.9v-1.7c0-0.2-0.1-0.3-0.3-0.3h0H382c-0.2,0-0.3,0.1-0.3,0.3v0
	l0,0v1.7h-4.9v-1.7c0-0.2-0.1-0.3-0.3-0.3h0h-7.9c-0.2,0-0.3,0.1-0.3,0.3c0,0,0,0,0,0v1.7h-4.9v-1.7c0-0.2-0.1-0.3-0.3-0.3h0h-7.9
	c-0.2,0-0.3,0.1-0.3,0.3v0l0,0v1.7h-4.9v-1.7c0-0.2-0.1-0.3-0.3-0.3h0h-7.9c-0.2,0-0.3,0.1-0.3,0.3v0l0,0v1.7h-4.9v-1.7
	c0-0.2-0.1-0.3-0.3-0.3h0h-61.8c-0.2,0-0.3,0.1-0.3,0.3v0l0,0v1.7H269v-1.7c0-0.2-0.1-0.3-0.3-0.3h0h-7.9c-0.2,0-0.3,0.1-0.3,0.3v0
	l0,0v1.7h-4.9v-1.7c0-0.2-0.1-0.3-0.3-0.3c0,0,0,0,0,0h-7.9c-0.2,0-0.3,0.1-0.3,0.3v0l0,0v1.7H242v-1.7c0-0.2-0.1-0.3-0.3-0.3h0
	h-7.9c-0.2,0-0.3,0.1-0.3,0.3v0l0,0v1.7h-4.9v-1.7c0-0.2-0.1-0.3-0.3-0.3h0h-7.9c-0.2,0-0.3,0.1-0.3,0.3v0l0,0v1.7h-4.9v-1.7
	c0-0.2-0.1-0.3-0.3-0.3h0h-7.9c-0.2,0-0.3,0.1-0.3,0.3v1.7h-4.9v-1.7c0-0.2-0.1-0.3-0.3-0.3l0,0h-7.9c-0.2,0-0.3,0.1-0.3,0.3l0,0
	l0,0v1.7h-15.1c-4.4,0-7.9,3.5-7.9,7.9v3.6c0,4.4,3.5,7.9,7.9,7.9h262.3c4.4,0,7.9-3.5,7.9-7.9v-3.6
	C448.1,210.8,444.6,207.2,440.2,207.2L440.2,207.2z"/>
<path class="st4" d="M311.4,192.2c-0.1,0.2-0.2,0.4-0.3,0.5c-0.5,0.9-1.2,1.8-2.1,2.4c-3.2,2.2-7.5,1.5-9.7-1.7
	c-0.8-1.2-1.3-2.6-1.3-4v-1.1h1C302.7,190.7,307,192.1,311.4,192.2z"/>
<path class="st4" d="M325,188.7v0.8c0,3.9-3.1,7-7,7c-2.6,0-4.9-1.4-6.1-3.6c-0.1-0.2-0.2-0.4-0.3-0.6c0.2,0,0.4,0,0.6,0
	C316.8,192.2,321.2,191,325,188.7z"/>
<path class="st4" d="M334.4,104.5c-0.2,0-0.4-0.1-0.6-0.1c2.4,5.6,2.6,11.8,0.5,17.5c0.2,0,0.4-0.1,0.6-0.1c4.8-0.9,7.9-5.5,7-10.3
	C341.1,107.8,338.2,105,334.4,104.5L334.4,104.5z"/>
<path class="st4" d="M290.7,104.4c-0.2,0-0.4,0-0.6,0.1c-4.8,0.7-8.2,5.1-7.5,9.9c0.5,3.7,3.3,6.7,7,7.4c0.2,0,0.4,0.1,0.6,0.1
	C288.2,116.2,288.3,110,290.7,104.4L290.7,104.4z"/>
<path class="st4" d="M334.4,104.5c-5.1-12.2-19.2-18-31.4-12.9c-12.2,5.1-18,19.2-12.9,31.4c5.1,12.2,19.2,18,31.4,12.9
	c8.9-3.7,14.7-12.5,14.7-22.2C336.3,110.6,335.7,107.4,334.4,104.5z M334.3,121.9c-4.5,12.1-18,18.3-30.2,13.8
	c-12.1-4.5-18.3-18-13.8-30.2c4.5-12.1,18-18.3,30.2-13.8c9.2,3.4,15.3,12.2,15.3,22C335.7,116.5,335.2,119.3,334.3,121.9z"/>
<path class="st4" d="M324.6,108.3H300c-2.7,0-4.9,2.2-4.9,4.9c0,2.7,2.2,4.9,4.9,4.9h24.6c2.7,0,4.9-2.2,4.9-4.9
	C329.4,110.5,327.3,108.3,324.6,108.3z"/>
<path class="st4" d="M334.3,155.5c-0.1-0.2-0.2-0.3-0.3-0.5c0,0,0,0,0,0c-7-12-22.4-16-34.4-9c-12,7-16,22.4-9,34.4
	c4.3,7.4,12,12,20.6,12.4c0.3,0,0.5,0,0.8,0c0.1,0,0.2,0,0.3,0c4.5,0,8.9-1.2,12.8-3.5c4.2-2.5,7.6-6.1,9.8-10.5c0,0,0,0,0,0
	c0.1-0.2,0.2-0.3,0.2-0.5C338.5,171,338.2,162.5,334.3,155.5L334.3,155.5z M334.5,178.1c-0.1,0.2-0.2,0.3-0.3,0.5
	c-2.1,4.1-5.3,7.6-9.2,10c-3.8,2.3-8.3,3.6-12.8,3.6c-0.2,0-0.4,0-0.6,0c-0.1,0-0.2,0-0.3,0c-13.6-0.5-24.2-11.9-23.7-25.4
	c0.5-13.6,11.9-24.2,25.4-23.7c8.4,0.3,16,4.8,20.3,12.1c0,0,0,0,0,0c0.1,0.2,0.2,0.3,0.3,0.5C337.6,162.6,337.9,171,334.5,178.1
	L334.5,178.1z"/>
<path class="st4" d="M331.6,156.2c-0.5-0.3-1.1-0.5-1.7-0.5h-11c-1.6,0-2.9,1.3-2.9,2.9c0,1.6,1.3,2.9,2.9,2.9c0,0,0,0,0,0h11
	c0.2,0,0.4,0,0.6-0.1c0.2,0,0.4-0.1,0.6-0.2c1.5-0.6,2.1-2.3,1.5-3.8C332.4,157,332,156.5,331.6,156.2L331.6,156.2z"/>
<circle class="st6" cx="319.7" cy="158.6" r="1.5"/>
<circle class="st6" cx="324.4" cy="158.6" r="1.5"/>
<circle class="st3" cx="329.2" cy="158.6" r="1.5"/>
<path class="st5" d="M384.4,110.3c-3.8,2.3-10.6,5.1-17.5,2.2l-4.5-1.9l9-10.1c-15.9-17.6-14.6-44.7,3-60.6
	c17.6-15.9,44.7-14.6,60.6,3s14.6,44.7-3,60.6C419,115.3,400.1,117.9,384.4,110.3L384.4,110.3z"/>
<path class="st3" d="M384.4,110.8c-3.7,2.1-10.6,5.1-17.7,2.1l-5.1-2.2l9.1-10.3c-15.9-17.9-14.3-45.3,3.6-61.3
	c17.9-15.9,45.3-14.3,61.3,3.6c15.8,17.8,14.3,45-3.3,61l0,0C419.2,115.7,400.3,118.5,384.4,110.8L384.4,110.8z M434.6,43.2
	c-15.7-17.4-42.6-18.7-59.9-3s-18.7,42.6-3,59.9c0,0,0,0,0,0l0.3,0.3l-8.8,9.9l3.9,1.6c6.9,2.9,13.7-0.1,17.1-2.2l0.2-0.1l0.2,0.1
	c21.1,10.2,46.5,1.5,56.7-19.6C448.9,74.6,446.2,56,434.6,43.2L434.6,43.2z"/>
<path class="st7" d="M439.4,71.4c0-20.5-15.6-37.5-36-39.3c1.2-0.1,2.3-0.2,3.5-0.2c21.8,0,39.5,17.7,39.5,39.5
	c0,21.8-17.7,39.5-39.5,39.5c-1.2,0-2.3-0.1-3.5-0.2C423.7,108.9,439.3,91.9,439.4,71.4z"/>
<rect x="380.5" y="63.5" class="st3" width="28.2" height="2.6"/>
<rect x="380.5" y="72.6" class="st3" width="49.2" height="2.6"/>
<rect x="380.5" y="81.7" class="st3" width="49.1" height="2.6"/>
<path class="st8" d="M214.9,255H32.4c-0.3,0-0.5-0.2-0.5-0.5s0.2-0.5,0.5-0.5h182.5c0.3,0,0.5,0.2,0.5,0.5S215.1,255,214.9,255z"/>
<path class="st1" d="M144.5,64.3c-0.4-1.8-1.7-3.3-3.2-4.4c-5-3.7-12-3.3-16.5,1c-1.2,1.1-2.1,2.5-2.6,4.1c-0.4,1.6,0,3.3,1.1,4.6
	l0.2,0.1c-0.2-0.8,0.4-1.6,1.1-1.9c0.8-0.3,1.5-0.5,2.3-0.5c2.4-0.5,4.6-2,5.8-4.1c0.9,2.6,3,4.8,5.6,5.8c1.3,0.5,5,1.2,6.3,0.6
	C146.3,68.7,144.9,66.1,144.5,64.3z"/>
</svg>
