<svg width="351" height="72" viewBox="0 0 351 72" fill="none" xmlns="http://www.w3.org/2000/svg">
<g clip-path="url(#clip0)">
<path d="M52.8698 20.1401C52.161 19.1161 51.2543 18.2443 50.2032 17.5762C49.1521 16.9081 47.9779 16.4572 46.7498 16.2501C46.0598 16.1001 45.3498 16.0101 44.6498 15.8901H29.0498V47.3701C29.0498 47.5001 29.0498 47.6401 29.0498 47.7501H35.8898V34.7501H36.3898C38.7198 34.7501 41.0498 34.7501 43.3898 34.7501C44.5177 34.7284 45.6417 34.6114 46.7498 34.4001C48.8554 34.0508 50.7783 32.9923 52.1998 31.4001C53.4591 29.8215 54.1995 27.8921 54.3195 25.8763C54.4394 23.8605 53.9331 21.8569 52.8698 20.1401V20.1401ZM45.5098 28.3001C44.625 28.6171 43.6985 28.8024 42.7598 28.8501C40.4998 28.9301 38.2298 28.8501 35.9098 28.8501V21.8501C36.0198 21.8501 36.1198 21.8501 36.2398 21.8501C38.2398 21.8501 40.2398 21.8501 42.2398 21.8501C43.3703 21.827 44.4945 22.024 45.5498 22.4301C46.1633 22.6459 46.69 23.0551 47.0508 23.5962C47.4115 24.1372 47.5866 24.7809 47.5498 25.4301C47.57 26.0657 47.3816 26.6904 47.0131 27.2087C46.6447 27.727 46.1167 28.1103 45.5098 28.3001V28.3001Z" fill="#E20E18"/>
<path d="M109.65 41.9001V47.7601H86.8301V16.4501C86.8301 16.2701 86.8301 16.0801 86.8301 15.8901H93.6801V41.8901L109.65 41.9001Z" fill="#E20E18"/>
<path d="M81.82 20.8101C81.82 21.1201 81.82 21.4301 81.82 21.8101H65.59V28.8801H58.73V16.4001C58.73 16.2401 58.73 16.0701 58.73 15.8901H81.84C81.83 17.5301 81.83 19.1701 81.82 20.8101Z" fill="#E20E18"/>
<path d="M23.09 21.7799H6.87V28.8999H0V15.8999H23.05C23.05 17.1599 23.05 18.4099 23.05 19.6599L23.09 21.7799Z" fill="#E20E18"/>
<path d="M23.05 41.9V47.79H0V34.79H6.85V41.89L23.05 41.9Z" fill="#E20E18"/>
<path d="M65.55 34.8398H58.75V47.7698H65.55V34.8398Z" fill="#E20E18"/>
<path d="M21.6599 28.9399H6.93994V34.7499H21.6599V28.9399Z" fill="#E20E18"/>
<path d="M80.3902 28.9399H65.6802V34.7499H80.3902V28.9399Z" fill="#E20E18"/>
<path d="M211 41.0598V15.7998H203.47V47.7098H226.31V41.0598H211Z" fill="#ACADAC"/>
<path d="M251.86 22.3998V15.7998H229.29V47.7098H251.86V41.0598H236.81V34.6398H250V27.9998H236.81V22.3998H251.86Z" fill="#ACADAC"/>
<path d="M275.17 15.7998H266.9L256.58 43.1998L254.88 47.7098H262.88L264.78 42.0298H277.1L279.04 47.7098H287.22L275.17 15.7998ZM266.86 35.9098L271 23.7698L275.1 35.9098H266.86Z" fill="#ACADAC"/>
<path d="M310.77 34.4598C314.42 33.0498 317.02 30.3698 317.02 25.6598C317.02 17.7398 310.82 15.7998 302.54 15.7998H290.26V47.7098H297.78V35.7098H302.89L309.8 47.7098H318.65L310.77 34.4598ZM302.77 29.3598H297.77V22.1398H302.77C306.33 22.1398 309.07 22.7998 309.07 25.7498C309.07 28.6998 306.32 29.3598 302.76 29.3598H302.77Z" fill="#ACADAC"/>
<path d="M343.64 15.7998V37.7998L330.84 15.7998H321.68V47.7098H328.94V25.7098L341.75 47.7098H350.91V15.7998H343.64Z" fill="#ACADAC"/>
<path d="M196.61 15.7998H189.79V21.8498H196.61V15.7998Z" fill="#E20E18"/>
<path d="M210.55 59.64C210.393 60.4208 209.955 61.1169 209.319 61.5962C208.683 62.0754 207.894 62.3046 207.1 62.24C204.75 62.24 203.44 60.41 203.44 57.98C203.44 55.55 204.76 53.73 207.13 53.73C207.913 53.6718 208.69 53.9036 209.313 54.3812C209.937 54.8587 210.362 55.5488 210.51 56.32H210C209.857 55.6702 209.483 55.0944 208.948 54.699C208.413 54.3037 207.753 54.1157 207.09 54.17C205.19 54.17 203.91 55.64 203.91 57.98C203.91 60.32 205.18 61.8 207.07 61.8C207.749 61.8748 208.431 61.6954 208.985 61.2964C209.539 60.8975 209.926 60.3073 210.07 59.64H210.55Z" fill="#ACADAC"/>
<path d="M211.39 59.0501C211.39 57.1201 212.52 55.8901 214.19 55.8901C215.86 55.8901 216.94 57.2101 216.88 59.0901H211.88C211.88 60.9401 212.96 61.8301 214.27 61.8301C214.743 61.8645 215.213 61.7294 215.596 61.4492C215.979 61.1689 216.25 60.7616 216.36 60.3001H216.81C216.697 60.8816 216.373 61.4009 215.9 61.7588C215.428 62.1166 214.841 62.288 214.25 62.2401C212.47 62.2401 211.39 61.0001 211.39 59.0501ZM211.87 58.6901H216.4C216.421 58.3848 216.378 58.0785 216.276 57.79C216.174 57.5015 216.015 57.2368 215.807 57.0122C215.599 56.7875 215.348 56.6076 215.068 56.4835C214.788 56.3593 214.486 56.2935 214.18 56.2901C213.868 56.2856 213.558 56.3453 213.27 56.4654C212.981 56.5856 212.721 56.7638 212.504 56.9888C212.288 57.2138 212.12 57.481 212.011 57.7736C211.901 58.0663 211.854 58.3782 211.87 58.6901V58.6901Z" fill="#ACADAC"/>
<path d="M218.72 57.4C218.863 56.9452 219.153 56.5505 219.543 56.2774C219.934 56.0043 220.404 55.868 220.88 55.89C222.33 55.89 222.88 56.76 222.88 58.18V62.09H222.44V58.33C222.44 57.16 222.1 56.33 220.75 56.33C219.4 56.33 218.68 57.44 218.68 59.13V62.13H218.24V56H218.68L218.72 57.4Z" fill="#ACADAC"/>
<path d="M224.88 54.5498H225.31V55.9998H226.58V56.3898H225.31V60.5598C225.31 61.5598 225.31 61.6898 226.31 61.6898H226.6V62.0998H226.17C225.11 62.0998 224.9 61.8698 224.9 60.7198V56.3798H223.8V55.9998H224.88V54.5498Z" fill="#ACADAC"/>
<path d="M227.38 59.0501C227.38 57.1201 228.5 55.8901 230.18 55.8901C231.86 55.8901 232.92 57.2101 232.86 59.0901H227.86C227.86 60.9401 228.94 61.8301 230.26 61.8301C230.731 61.862 231.199 61.7259 231.58 61.4458C231.961 61.1657 232.23 60.7598 232.34 60.3001H232.79C232.676 60.8816 232.352 61.4009 231.88 61.7588C231.408 62.1166 230.82 62.288 230.23 62.2401C228.46 62.2401 227.38 61.0001 227.38 59.0501ZM227.86 58.6901H232.39C232.41 58.38 232.367 58.069 232.263 57.7763C232.158 57.4836 231.995 57.2155 231.782 56.9886C231.57 56.7616 231.313 56.5807 231.028 56.4571C230.743 56.3334 230.436 56.2696 230.125 56.2696C229.814 56.2696 229.507 56.3334 229.221 56.4571C228.936 56.5807 228.68 56.7616 228.467 56.9886C228.255 57.2155 228.092 57.4836 227.987 57.7763C227.883 58.069 227.839 58.38 227.86 58.6901V58.6901Z" fill="#ACADAC"/>
<path d="M236.69 56.42H236.48C235.06 56.42 234.7 57.6 234.7 59.29V62.09H234.27V56H234.67V57.32C234.786 56.9228 235.033 56.5765 235.371 56.337C235.708 56.0975 236.117 55.9788 236.53 56H236.69V56.42Z" fill="#ACADAC"/>
<path d="M240.54 55.2001C240.54 54.2001 240.77 53.8701 241.87 53.8701H242.24V54.2701H242C241 54.2701 240.95 54.4201 240.95 55.2701V56.0001H242.21V56.3901H241V62.1001H240.56V56.3801H239.67V56.0001H240.56L240.54 55.2001Z" fill="#ACADAC"/>
<path d="M245.51 55.8901C247.01 55.8901 248.24 56.8901 248.24 59.0601C248.24 61.2301 247.01 62.2401 245.51 62.2401C244.01 62.2401 242.79 61.2401 242.79 59.0601C242.79 56.8801 244 55.8901 245.51 55.8901ZM245.51 61.8301C246.81 61.8301 247.76 60.9201 247.76 59.0601C247.76 57.2001 246.81 56.3001 245.51 56.3001C244.21 56.3001 243.25 57.2101 243.25 59.0601C243.25 60.9101 244.2 61.8301 245.51 61.8301Z" fill="#ACADAC"/>
<path d="M252.06 56.4199H251.85C250.43 56.4199 250.07 57.5999 250.07 59.2899V62.0899H249.64V55.9999H250.05V57.3199C250.165 56.9235 250.41 56.5775 250.745 56.3379C251.081 56.0983 251.488 55.9792 251.9 55.9999H252.06V56.4199Z" fill="#ACADAC"/>
<path d="M256.73 61.0901H261.07V62.0901H255.57V53.8701H256.73V61.0901Z" fill="#ACADAC"/>
<path d="M262.48 59.3802C262.47 59.6329 262.512 59.8849 262.602 60.1212C262.693 60.3574 262.83 60.573 263.005 60.7551C263.181 60.9371 263.391 61.0819 263.624 61.1807C263.857 61.2795 264.107 61.3304 264.36 61.3302C264.709 61.3637 265.059 61.2847 265.359 61.1048C265.66 60.9248 265.895 60.6534 266.03 60.3302H267.1C266.93 60.9145 266.566 61.4234 266.068 61.7726C265.57 62.1218 264.967 62.2903 264.36 62.2502C263.945 62.265 263.533 62.191 263.149 62.0333C262.766 61.8756 262.42 61.6377 262.136 61.3356C261.852 61.0336 261.636 60.6743 261.502 60.2819C261.368 59.8894 261.32 59.4729 261.36 59.0602C261.329 58.6509 261.384 58.2397 261.522 57.8531C261.66 57.4664 261.877 57.1129 262.159 56.8152C262.442 56.5175 262.784 56.2823 263.163 56.1247C263.542 55.9672 263.95 55.8907 264.36 55.9002C266.23 55.9002 267.36 57.4502 267.21 59.3902L262.48 59.3802ZM262.48 58.5002H266.08C266.077 58.2717 266.03 58.046 265.94 57.8358C265.85 57.6257 265.72 57.4354 265.556 57.2757C265.393 57.1159 265.199 56.99 264.987 56.905C264.775 56.82 264.548 56.7776 264.32 56.7802C264.085 56.7651 263.849 56.7985 263.628 56.8782C263.406 56.9578 263.203 57.0821 263.032 57.2434C262.86 57.4046 262.724 57.5994 262.631 57.8156C262.537 58.0317 262.489 58.2648 262.49 58.5002H262.48Z" fill="#ACADAC"/>
<path d="M267.92 60.4798C267.92 59.0398 269.55 58.6098 272.05 58.3398V58.1898C272.05 57.0698 271.44 56.7098 270.66 56.7098C270.487 56.6871 270.312 56.7014 270.145 56.7517C269.978 56.802 269.824 56.8872 269.692 57.0016C269.561 57.116 269.455 57.257 269.382 57.4153C269.31 57.5736 269.271 57.7456 269.27 57.9198H268.2C268.268 57.3293 268.56 56.7874 269.016 56.4059C269.472 56.0245 270.057 55.8326 270.65 55.8698C272.34 55.8698 273.09 56.6598 273.08 58.3898V59.7898C273.046 60.56 273.1 61.3316 273.24 62.0898H272.19C272.146 61.8116 272.12 61.5311 272.11 61.2498C271.896 61.5987 271.586 61.8786 271.217 62.0559C270.848 62.2333 270.436 62.3006 270.03 62.2498C269.773 62.2848 269.511 62.2658 269.262 62.1938C269.013 62.1218 268.782 61.9985 268.583 61.8319C268.384 61.6652 268.223 61.4588 268.109 61.226C267.994 60.9931 267.93 60.7389 267.92 60.4798V60.4798ZM272.13 59.1598C270.26 59.3398 269.07 59.6198 269.07 60.4598C269.07 61.0398 269.51 61.4598 270.25 61.4598C270.504 61.4884 270.761 61.4595 271.002 61.3752C271.243 61.2908 271.462 61.1532 271.643 60.9726C271.823 60.792 271.961 60.5729 272.045 60.3318C272.13 60.0907 272.159 59.8336 272.13 59.5798V59.1598Z" fill="#ACADAC"/>
<path d="M277.62 57.0699C277.427 57.0572 277.233 57.0572 277.04 57.0699C276.04 57.0699 275.61 57.5999 275.61 58.9499V62.1399H274.61V55.9999H275.61V57.0699C275.757 56.7381 275.999 56.4568 276.304 56.2612C276.61 56.0656 276.967 55.9643 277.33 55.97H277.64L277.62 57.0699Z" fill="#ACADAC"/>
<path d="M279.6 56.9098C279.807 56.5733 280.104 56.3014 280.457 56.1247C280.811 55.948 281.206 55.8736 281.6 55.9098C283.07 55.9098 283.6 56.9098 283.6 58.2598V62.1098H282.6V58.5398C282.6 57.5998 282.44 56.7898 281.26 56.7898C280.26 56.7898 279.65 57.4698 279.65 58.7898V62.0998H278.65V55.9998H279.65L279.6 56.9098Z" fill="#ACADAC"/>
<path d="M286.12 53.8701V55.1201H285.12V53.8701H286.12ZM286.12 55.9901V62.0901H285.12V56.0001L286.12 55.9901Z" fill="#ACADAC"/>
<path d="M288.74 56.9098C288.947 56.5733 289.244 56.3014 289.597 56.1247C289.951 55.948 290.347 55.8736 290.74 55.9098C292.21 55.9098 292.74 56.9098 292.74 58.2598V62.1098H291.74V58.5398C291.74 57.5998 291.58 56.7898 290.4 56.7898C289.4 56.7898 288.79 57.4698 288.79 58.7898V62.0998H287.79V55.9998H288.79L288.74 56.9098Z" fill="#ACADAC"/>
<path d="M298.33 56.0001H299.33V61.2901C299.38 61.6675 299.354 62.0509 299.254 62.4182C299.155 62.7855 298.983 63.1294 298.75 63.4301C298.475 63.7056 298.145 63.9195 297.781 64.0574C297.417 64.1954 297.028 64.2542 296.64 64.2301C296.061 64.3103 295.474 64.1589 295.006 63.8088C294.538 63.4587 294.227 62.9382 294.14 62.3601H295.24C295.36 62.9101 295.71 63.3601 296.66 63.3601C296.888 63.3776 297.116 63.3455 297.331 63.2661C297.545 63.1867 297.739 63.0618 297.9 62.9001C298.059 62.7167 298.177 62.5014 298.246 62.2685C298.315 62.0356 298.334 61.7907 298.3 61.5501V60.9801C298.109 61.3115 297.828 61.5826 297.491 61.7629C297.153 61.9431 296.772 62.0253 296.39 62.0001C295.04 62.0001 293.81 60.9101 293.81 58.9501C293.81 56.9901 295.04 55.9501 296.39 55.9501C296.781 55.9156 297.173 55.9968 297.518 56.1835C297.863 56.3702 298.145 56.6542 298.33 57.0001V56.0001ZM296.65 56.7901C295.65 56.7901 294.93 57.5601 294.93 58.9501C294.93 60.3401 295.64 61.1301 296.65 61.1301C297.66 61.1301 298.37 60.5001 298.37 58.9501C298.37 57.4001 297.56 56.7801 296.65 56.7801V56.7901Z" fill="#ACADAC"/>
<path d="M306.39 53.7298C307.098 53.6574 307.808 53.849 308.384 54.2679C308.96 54.6868 309.361 55.3036 309.51 55.9998H308.39C308.235 55.6027 307.958 55.2653 307.598 55.0368C307.238 54.8084 306.815 54.7008 306.39 54.7298C305.75 54.7298 304.64 55.0098 304.64 55.9298C304.64 56.6598 305.21 57.0198 305.98 57.1898L306.93 57.4098C308.19 57.6798 309.7 58.1498 309.7 59.8098C309.7 61.4698 308.2 62.2698 306.57 62.2698C305.765 62.3517 304.961 62.1148 304.329 61.61C303.697 61.1052 303.288 60.3727 303.19 59.5698H304.33C304.364 59.8316 304.45 60.084 304.583 60.3124C304.715 60.5408 304.892 60.7407 305.102 60.9006C305.312 61.0605 305.551 61.1773 305.807 61.2441C306.062 61.3109 306.328 61.3264 306.59 61.2898C307.82 61.2898 308.51 60.7298 308.51 59.9098C308.51 59.0898 307.76 58.6998 306.74 58.4598L305.74 58.2398C304.61 57.9998 303.48 57.3598 303.48 55.9998C303.42 54.3998 305.07 53.7298 306.39 53.7298Z" fill="#ACADAC"/>
<path d="M316.08 58.0001H315.08C315.005 57.6431 314.806 57.3241 314.519 57.0991C314.232 56.8741 313.875 56.7576 313.51 56.7701C312.6 56.7701 311.75 57.4801 311.75 59.0101C311.75 60.5401 312.6 61.3001 313.51 61.3001C313.878 61.3097 314.239 61.1943 314.533 60.9728C314.827 60.7512 315.037 60.4366 315.13 60.0802H316.19C316.053 60.6953 315.708 61.2439 315.211 61.6324C314.715 62.0209 314.1 62.2251 313.47 62.2101C311.71 62.2101 310.63 60.8801 310.63 59.0201C310.595 58.615 310.645 58.207 310.778 57.8224C310.91 57.4379 311.122 57.0854 311.399 56.7877C311.676 56.4899 312.012 56.2536 312.386 56.0938C312.76 55.934 313.163 55.8544 313.57 55.8601C314.176 55.8535 314.764 56.0666 315.226 56.46C315.687 56.8534 315.991 57.4004 316.08 58.0001V58.0001Z" fill="#ACADAC"/>
<path d="M318.31 53.8701V55.1201H317.31V53.8701H318.31ZM318.31 55.9901V62.0901H317.31V56.0001L318.31 55.9901Z" fill="#ACADAC"/>
<path d="M320.6 59.38C320.589 59.6331 320.63 59.8857 320.72 60.1226C320.809 60.3594 320.946 60.5756 321.122 60.7579C321.298 60.9403 321.509 61.085 321.742 61.1834C321.976 61.2817 322.227 61.3316 322.48 61.33C322.829 61.3635 323.179 61.2845 323.479 61.1045C323.78 60.9246 324.015 60.6532 324.15 60.33H325.21C325.042 60.9135 324.68 61.4222 324.184 61.7714C323.687 62.1207 323.086 62.2896 322.48 62.25C322.065 62.2664 321.652 62.1936 321.267 62.0364C320.883 61.8793 320.537 61.6414 320.253 61.339C319.968 61.0366 319.752 60.6766 319.619 60.2834C319.486 59.8902 319.438 59.473 319.48 59.06C319.448 58.6504 319.502 58.2385 319.639 57.8511C319.776 57.4638 319.993 57.1096 320.276 56.8116C320.559 56.5136 320.901 56.2784 321.281 56.1214C321.661 55.9643 322.069 55.8889 322.48 55.9C324.35 55.9 325.48 57.45 325.32 59.39L320.6 59.38ZM320.6 58.5H324.2C324.197 58.2715 324.15 58.0457 324.06 57.8356C323.97 57.6255 323.84 57.4352 323.676 57.2755C323.513 57.1157 323.32 56.9898 323.108 56.9048C322.895 56.8197 322.669 56.7774 322.44 56.78C322.205 56.7649 321.97 56.7983 321.748 56.8779C321.526 56.9576 321.324 57.0819 321.152 57.2432C320.981 57.4044 320.844 57.5992 320.751 57.8153C320.657 58.0315 320.61 58.2646 320.61 58.5H320.6Z" fill="#ACADAC"/>
<path d="M327.49 56.9098C327.697 56.5733 327.994 56.3014 328.347 56.1247C328.701 55.948 329.097 55.8736 329.49 55.9098C330.96 55.9098 331.49 56.9098 331.49 58.2598V62.1098H330.49V58.5398C330.49 57.5998 330.33 56.7898 329.15 56.7898C328.15 56.7898 327.54 57.4698 327.54 58.7898V62.0998H326.54V55.9998H327.54L327.49 56.9098Z" fill="#ACADAC"/>
<path d="M338.05 58.0001H337.05C336.975 57.6414 336.775 57.321 336.485 57.0958C336.196 56.8706 335.836 56.7552 335.47 56.7701C334.56 56.7701 333.71 57.4801 333.71 59.0101C333.71 60.5401 334.56 61.3001 335.47 61.3001C335.838 61.3097 336.199 61.1943 336.493 60.9728C336.787 60.7512 336.997 60.4366 337.09 60.0801H338.16C338.023 60.6953 337.678 61.2439 337.182 61.6324C336.685 62.0209 336.07 62.2251 335.44 62.2101C333.68 62.2101 332.59 60.8801 332.59 59.0201C332.556 58.6144 332.608 58.2062 332.742 57.8217C332.875 57.4372 333.088 57.0848 333.366 56.7873C333.643 56.4897 333.98 56.2535 334.355 56.0938C334.729 55.9342 335.133 55.8546 335.54 55.8601C336.145 55.8577 336.731 56.0722 337.192 56.4649C337.652 56.8575 337.957 57.4022 338.05 58.0001V58.0001Z" fill="#ACADAC"/>
<path d="M340 59.3799C339.988 59.6333 340.028 59.8866 340.117 60.1241C340.206 60.3616 340.343 60.5783 340.519 60.761C340.695 60.9437 340.907 61.0883 341.141 61.1862C341.375 61.284 341.626 61.3329 341.88 61.3299C342.227 61.3612 342.575 61.2811 342.874 61.1013C343.172 60.9215 343.406 60.6513 343.54 60.3299H344.61C344.441 60.9125 344.078 61.42 343.582 61.769C343.086 62.118 342.486 62.2876 341.88 62.2499C341.069 62.2044 340.306 61.85 339.748 61.2596C339.189 60.6691 338.878 59.8874 338.878 59.0749C338.878 58.2624 339.189 57.4807 339.748 56.8902C340.306 56.2998 341.069 55.9454 341.88 55.8999C343.75 55.8999 344.88 57.4499 344.73 59.3899L340 59.3799ZM340 58.4999H343.59C343.589 58.271 343.542 58.0447 343.453 57.8339C343.363 57.6232 343.233 57.4323 343.069 57.2724C342.906 57.1124 342.712 56.9865 342.499 56.9019C342.286 56.8174 342.059 56.7759 341.83 56.7799C341.595 56.7648 341.36 56.7982 341.138 56.8779C340.917 56.9575 340.714 57.0818 340.542 57.2431C340.371 57.4043 340.234 57.5991 340.141 57.8153C340.048 58.0314 340 58.2645 340 58.4999V58.4999Z" fill="#ACADAC"/>
<path d="M349.37 57.77C349.296 57.4548 349.108 57.1782 348.842 56.9936C348.576 56.8089 348.251 56.7292 347.93 56.77C347.33 56.77 346.65 56.99 346.65 57.55C346.65 58.11 346.99 58.25 347.58 58.37L348.44 58.54C349.55 58.75 350.52 59.19 350.52 60.36C350.52 61.53 349.43 62.25 348.04 62.25C347.416 62.294 346.798 62.0997 346.312 61.7062C345.826 61.3127 345.507 60.7494 345.42 60.13H346.51C346.558 60.4978 346.745 60.8332 347.034 61.066C347.323 61.2989 347.69 61.4114 348.06 61.38C348.84 61.38 349.48 61.05 349.48 60.47C349.48 59.89 348.9 59.61 348.24 59.47L347.34 59.29C346.51 59.11 345.6 58.75 345.6 57.6C345.6 56.45 346.69 55.9 348.04 55.9C348.606 55.8479 349.17 56.0149 349.617 56.3665C350.063 56.7181 350.358 57.2276 350.44 57.79L349.37 57.77Z" fill="#ACADAC"/>
<path d="M149.34 0V71.44" stroke="#3C3C3B" stroke-width="0.4" stroke-miterlimit="10"/>
</g>
<defs>
<clipPath id="clip0">
<rect width="350.91" height="71.44" fill="white"/>
</clipPath>
</defs>
</svg>
