<svg width="636" height="636" viewBox="0 0 636 636" fill="none" xmlns="http://www.w3.org/2000/svg">
<path d="M212.019 0H0V211.889H212.019V0Z" fill="#4600DA"/>
<path d="M424 0H212V211H424V0Z" fill="white"/>
<path d="M636 0H424V212H636V0Z" fill="#06CCC0"/>
<path d="M212.019 211.889H0V423.778H212.019V211.889Z" fill="white"/>
<path d="M424 212H212V424H424V212Z" fill="#3A04AD"/>
<path d="M636 212H424V424H636V212Z" fill="#88F5DE"/>
<path d="M212 424H0V636H212V424Z" fill="black"/>
<path d="M636 424H424V636H636V424Z" fill="white"/>
<path d="M424 424H212V636H424V424Z" fill="#8044FF"/>
<path d="M636 636H424V424" fill="#3B7CFF"/>
<path d="M590.594 211.918V297.645C590.587 313.715 584.194 329.123 572.821 340.484C561.449 351.844 546.027 358.226 529.948 358.226C513.871 358.226 498.453 351.843 487.085 340.482C475.717 329.121 469.33 313.712 469.33 297.645V211.918" fill="#3B7CFF"/>
<path d="M469.33 212.146V122.647C469.33 106.58 475.717 91.1712 487.085 79.8101C498.453 68.4491 513.871 62.0665 529.948 62.0665C546.027 62.0665 561.449 68.4481 572.821 79.8084C584.194 91.1686 590.587 106.577 590.594 122.647V211.918" fill="#4600DA"/>
<path d="M106.023 172.169C141.728 172.169 170.673 143.242 170.673 107.559C170.673 71.8761 141.728 42.9493 106.023 42.9493C70.3185 42.9493 41.374 71.8761 41.374 107.559C41.374 143.242 70.3185 172.169 106.023 172.169Z" fill="#88F5DE"/>
<path d="M106.023 138.592C123.173 138.592 137.076 124.698 137.076 107.559C137.076 90.4199 123.173 76.5259 106.023 76.5259C88.8738 76.5259 74.9712 90.4199 74.9712 107.559C74.9712 124.698 88.8738 138.592 106.023 138.592Z" fill="white"/>
<path d="M423.981 317.919C423.981 317.919 376.67 374.216 318 374.216C259.33 374.216 211.99 317.834 211.99 317.834C211.99 317.834 259.445 261.452 318 261.452C376.555 261.452 423.981 317.919 423.981 317.919Z" fill="#8044FF"/>
<path d="M424.039 99.7864H212.02V112.074H424.039V99.7864Z" fill="#4600DA"/>
<path d="M424.039 74.84H212.02V87.1275H424.039V74.84Z" fill="#4600DA"/>
<path d="M424.039 49.8932H212.02V62.1808H424.039V49.8932Z" fill="#4600DA"/>
<path d="M424.039 24.9467H212.02V37.2342H424.039V24.9467Z" fill="#4600DA"/>
<path d="M424 0H212V12H424V0Z" fill="#4600DA"/>
<path d="M424.039 124.762H212.02V137.049H424.039V124.762Z" fill="#4600DA"/>
<path d="M424.039 149.708H212.02V161.996H424.039V149.708Z" fill="#4600DA"/>
<path d="M424 175H212V187H424V175Z" fill="#4600DA"/>
<path d="M424 200H212V212H424V200Z" fill="#4600DA"/>
<path d="M318 451C296.522 451 275.924 459.533 260.734 474.723C245.545 489.912 237.008 510.515 237 532H318V451Z" fill="white"/>
<path d="M399 532C399 510.517 390.466 489.915 375.276 474.724C360.085 459.534 339.483 451 318 451V532H399Z" fill="black"/>
<path d="M318 613C328.639 613 339.175 610.905 349.004 606.834C358.833 602.763 367.764 596.796 375.286 589.274C382.808 581.752 388.773 572.822 392.842 562.995C396.911 553.168 399.004 542.636 399 532H318V613Z" fill="#88F5DE"/>
<path d="M237 532C237.008 553.485 245.545 574.088 260.734 589.277C275.924 604.467 296.522 613 318 613V532H237Z" fill="#4600DA"/>
<path d="M318.129 348.881C335.279 348.881 349.181 334.987 349.181 317.848C349.181 300.709 335.279 286.815 318.129 286.815C300.979 286.815 287.077 300.709 287.077 317.848C287.077 334.987 300.979 348.881 318.129 348.881Z" fill="white"/>
<path d="M0 424C0 367.774 22.3356 313.851 62.0933 274.093C101.851 234.336 155.774 212 212 212V424H0Z" fill="#3B7CFF"/>
<path d="M212 424C212 480.226 189.664 534.149 149.907 573.907C110.149 613.664 56.2259 636 0 636V424H212Z" fill="#06CCC0"/>
<path d="M37.5 284C57.6584 284 74 267.882 74 248C74 228.118 57.6584 212 37.5 212C17.3416 212 1 228.118 1 248C1 267.882 17.3416 284 37.5 284Z" fill="#06CCC0"/>
<path d="M569.435 211.918C569.435 217.099 568.413 222.229 566.428 227.015C564.444 231.802 561.535 236.15 557.867 239.812C554.2 243.475 549.847 246.379 545.056 248.359C540.266 250.339 535.132 251.356 529.947 251.352C519.482 251.352 509.446 247.198 502.046 239.802C494.646 232.407 490.489 222.376 490.489 211.918" fill="white"/>
<path d="M490.489 211.918C490.485 206.737 491.503 201.606 493.484 196.818C495.465 192.03 498.371 187.68 502.036 184.015C505.7 180.35 510.051 177.443 514.841 175.459C519.63 173.476 524.763 172.455 529.947 172.455C535.133 172.455 540.268 173.475 545.059 175.459C549.849 177.442 554.202 180.349 557.869 184.013C561.536 187.678 564.445 192.028 566.429 196.816C568.413 201.604 569.435 206.735 569.435 211.918H490.489Z" fill="black"/>
</svg>
