<svg width="189" height="35" viewBox="0 0 189 35" fill="none" xmlns="http://www.w3.org/2000/svg"
        style="visibility: initial;" id="logo">
        <path class="letter letter_io" id="letter_i" d="M164.687 3V29.1204H158.65V3H164.687Z" fill="#4600DA"
            style="opacity: 1;" transform="matrix(1,0,0,1,0,0)"></path>
        <path class="letter letter_io" id="letter_o2"
            d="M172.896 28.1455C171.356 27.3435 170.079 26.118 169.215 24.6137C168.304 22.9792 167.846 21.1312 167.889 19.2609C167.843 17.3901 168.3 15.5412 169.215 13.908C170.081 12.4007 171.358 11.1698 172.896 10.3578C174.519 9.54677 176.308 9.12451 178.123 9.12451C179.937 9.12451 181.727 9.54677 183.35 10.3578C184.888 11.1698 186.164 12.4007 187.031 13.908C187.943 15.5427 188.406 17.3894 188.374 19.2609C188.412 21.1295 187.941 22.9732 187.012 24.5953C186.146 26.1026 184.869 27.3336 183.331 28.1455C181.717 28.9799 179.921 29.4032 178.104 29.3779C176.292 29.4111 174.501 28.9872 172.896 28.1455V28.1455ZM181.049 22.8846C181.484 22.3818 181.816 21.7978 182.024 21.1664C182.233 20.535 182.314 19.8687 182.264 19.2057C182.356 17.874 181.934 16.5576 181.086 15.5267C180.709 15.1293 180.255 14.8128 179.752 14.5964C179.249 14.3801 178.707 14.2685 178.159 14.2685C177.612 14.2685 177.07 14.3801 176.567 14.5964C176.063 14.8128 175.61 15.1293 175.233 15.5267C174.389 16.5594 173.974 17.8762 174.074 19.2057C173.977 20.5318 174.384 21.8457 175.215 22.8846C175.572 23.2971 176.017 23.6249 176.516 23.8445C177.016 24.064 177.559 24.1697 178.104 24.1538C178.647 24.1528 179.185 24.0396 179.682 23.8212C180.179 23.6027 180.626 23.2839 180.994 22.8846H181.049Z"
            fill="#4600da" style="opacity: 1;" transform="matrix(1,0,0,1,0,0)"></path>
        <desc>Created with Snap</desc>
        <defs>
            <mask id="maskSkzo14r1lc">
                <rect x="0" y="0" width="157" height="40" style="" fill="#ffffff" stroke="none"></rect>
            </mask>
        </defs>
        <g mask="url('#maskSkzo14r1lc')">
            <path class="letter_non_io"
                d="M81.9755 11.4248C82.7315 12.2545 83.3133 13.2274 83.6863 14.2859C84.0594 15.3443 84.2161 16.4669 84.1472 17.587V29.102H78.1472V18.4147C78.2259 17.3407 77.8826 16.2783 77.1902 15.4532C76.4188 14.7998 75.4406 14.4412 74.4294 14.4412C73.4183 14.4412 72.4401 14.7998 71.6687 15.4532C70.9631 16.2727 70.6064 17.3357 70.6748 18.4147V29.102H64.6012V18.4147C64.6627 17.3335 64.2995 16.2709 63.589 15.4532C63.2225 15.0984 62.7861 14.8235 62.3077 14.6462C61.8293 14.4689 61.3192 14.3929 60.8098 14.4231C60.3035 14.3955 59.7969 14.4727 59.3218 14.65C58.8467 14.8273 58.4134 15.1007 58.0491 15.4532C57.6938 15.8561 57.4215 16.325 57.2478 16.8332C57.0741 17.3414 57.0024 17.8788 57.0368 18.4147V29.102H51V9.40136H57.0368V11.8846C57.6652 11.0393 58.4936 10.363 59.4479 9.91641C60.4944 9.42316 61.6407 9.17767 62.7975 9.19902C64.1826 9.17437 65.551 9.50361 66.773 10.1555C67.9274 10.7693 68.875 11.71 69.4969 12.8596C70.2026 11.7693 71.1627 10.8667 72.2945 10.2291C73.4577 9.53909 74.7886 9.18269 76.1411 9.19902C77.215 9.14404 78.2886 9.31359 79.2932 9.69684C80.2978 10.0801 81.2113 10.6686 81.9755 11.4248V11.4248Z"
                fill="#4600DA"></path>
            <path class="letter_non_io"
                d="M92.1535 28.1455C90.6143 27.3435 89.337 26.118 88.4725 24.6137C87.5616 22.9792 87.1042 21.1312 87.1473 19.2609C87.1151 17.3894 87.5786 15.5427 88.4909 13.908C89.3575 12.4007 90.6338 11.1698 92.1719 10.3578C93.7948 9.54677 95.5844 9.12451 97.3989 9.12451C99.2134 9.12451 101.003 9.54677 102.626 10.3578C104.168 11.1639 105.446 12.3963 106.307 13.908C107.227 15.5394 107.692 17.3884 107.65 19.2609C107.688 21.1295 107.217 22.9732 106.288 24.5953C105.422 26.1026 104.145 27.3335 102.607 28.1455C100.988 28.9829 99.1855 29.4063 97.362 29.3779C95.5501 29.4087 93.7593 28.985 92.1535 28.1455ZM100.307 22.8846C100.742 22.3818 101.074 21.7978 101.282 21.1664C101.49 20.535 101.572 19.8687 101.522 19.2057C101.623 17.8728 101.201 16.5529 100.344 15.5267C99.9686 15.1298 99.5164 14.8136 99.0148 14.5975C98.5132 14.3813 97.9727 14.2699 97.4265 14.2699C96.8802 14.2699 96.3397 14.3813 95.8381 14.5975C95.3365 14.8136 94.8843 15.1298 94.5093 15.5267C93.6523 16.5529 93.2297 17.8728 93.3314 19.2057C93.2323 20.5351 93.6473 21.8519 94.4909 22.8846C94.8541 23.3045 95.3077 23.6368 95.8177 23.8566C96.3277 24.0764 96.8808 24.178 97.4357 24.1538C97.9759 24.1514 98.5098 24.0374 99.0039 23.819C99.498 23.6006 99.9416 23.2825 100.307 22.8846V22.8846Z"
                fill="#4600DA"></path>
            <path class="letter_non_io"
                d="M110.834 13.8896C111.533 12.436 112.631 11.2111 114 10.3579C115.316 9.53075 116.844 9.10267 118.399 9.12542C119.63 9.11201 120.847 9.38932 121.951 9.93478C122.963 10.4588 123.82 11.2389 124.436 12.1973V3H130.564V29.1204H124.436V26.2692C123.866 27.2394 123.029 28.0249 122.025 28.5318C120.889 29.1219 119.623 29.4131 118.344 29.3779C116.805 29.3919 115.295 28.9572 114 28.1271C112.639 27.2594 111.553 26.0214 110.871 24.5585C110.069 22.8969 109.671 21.0688 109.712 19.2241C109.66 17.3823 110.044 15.5544 110.834 13.8896ZM123.184 15.7291C122.788 15.3197 122.313 14.9941 121.788 14.7718C121.263 14.5494 120.699 14.4348 120.129 14.4348C119.559 14.4348 118.995 14.5494 118.47 14.7718C117.945 14.9941 117.47 15.3197 117.074 15.7291C116.222 16.6885 115.779 17.9428 115.841 19.2241C115.773 20.5317 116.222 21.8136 117.092 22.7926C117.479 23.2163 117.951 23.5534 118.478 23.7817C119.004 24.0099 119.573 24.1242 120.147 24.1171C120.72 24.1313 121.29 24.0221 121.817 23.7967C122.344 23.5713 122.817 23.2352 123.202 22.811C123.636 22.3317 123.97 21.771 124.185 21.1616C124.4 20.5521 124.491 19.906 124.454 19.2609C124.494 18.6127 124.404 17.9632 124.189 17.3504C123.974 16.7375 123.638 16.1738 123.202 15.6923L123.184 15.7291Z"
                fill="#4600DA"></path>
            <path class="letter_non_io"
                d="M154.307 9.40137V29.102H148.27V26.4164C147.628 27.3103 146.775 28.0309 145.785 28.5134C144.706 29.0511 143.513 29.3224 142.307 29.3044C140.911 29.332 139.533 28.9892 138.313 28.3111C137.155 27.6193 136.227 26.6021 135.644 25.3863C134.976 23.993 134.648 22.4611 134.687 20.9164V9.40137H140.687V20.1071C140.604 21.2415 140.967 22.3637 141.7 23.2341C142.455 23.9205 143.439 24.3008 144.46 24.3008C145.481 24.3008 146.466 23.9205 147.221 23.2341C147.94 22.3778 148.302 21.278 148.233 20.1622V9.40137H154.307Z"
                fill="#4600DA"></path>
        </g>
        <g style="opacity: 1;">
            <path id="dot1"
                d="M7.5 15C11.6421 15 15 11.6421 15 7.5C15 3.35786 11.6421 0 7.5 0C3.35786 0 0 3.35786 0 7.5C0 11.6421 3.35786 15 7.5 15Z"
                fill="#4600DA"></path>
            <path id="greydot1"
                d="M25.5 12C27.9853 12 30 9.98528 30 7.5C30 5.01472 27.9853 3 25.5 3C23.0147 3 21 5.01472 21 7.5C21 9.98528 23.0147 12 25.5 12Z"
                fill="#d8d8d8" transform="matrix(1,0,0,1,0,0)" style=""></path>
        </g>
        <g style="opacity: 1;">
            <path id="dot2"
                d="M25.5 34C29.6421 34 33 30.6421 33 26.5C33 22.3579 29.6421 19 25.5 19C21.3579 19 18 22.3579 18 26.5C18 30.6421 21.3579 34 25.5 34Z"
                fill="#06CCC0"></path>
            <path id="greydot2"
                d="M7.5 31C9.98528 31 12 28.9853 12 26.5C12 24.0147 9.98528 22 7.5 22C5.01472 22 3 24.0147 3 26.5C3 28.9853 5.01472 31 7.5 31Z"
                fill="#d8d8d8" transform="matrix(1,0,0,1,0,0)" style=""></path>
        </g>
    </svg>