<?xml version="1.0" encoding="utf-8"?>
<!-- Generator: Adobe Illustrator 26.0.3, SVG Export Plug-In . SVG Version: 6.00 Build 0)  -->
<svg version="1.1" id="Layer_1" xmlns="http://www.w3.org/2000/svg" xmlns:xlink="http://www.w3.org/1999/xlink" x="0px" y="0px"
	 viewBox="0 0 188 275" style="enable-background:new 0 0 188 275;" xml:space="preserve">
<style type="text/css">
	.st0{fill:#DCDCDC;stroke:#000000;stroke-width:2;stroke-miterlimit:10;}
	.st1{fill:#DCDCDC;stroke:#000000;stroke-width:3;stroke-miterlimit:10;}
	.st2{fill:none;stroke:#000000;stroke-width:2;stroke-miterlimit:10;}
	.st3{font-family:'Helvetica-Oblique';}
	.st4{font-size:14px;}
	.st5{font-family:'Helvetica';}
	.st6{stroke:#000000;stroke-width:2;stroke-miterlimit:10;}
</style>
<circle class="st0" cx="120.21" cy="161.28" r="27"/>
<line class="st1" x1="110.21" y1="144.28" x2="110.21" y2="176.96"/>
<circle class="st0" cx="120.21" cy="76.28" r="27"/>
<line class="st1" x1="110.21" y1="59.28" x2="110.21" y2="91.96"/>
<polyline class="st2" points="133.84,212.87 133.84,184.58 110.21,160.62 133.84,137.97 133.84,99.58 110.21,75.62 133.84,52.97 
	133.84,28.57 "/>
<polyline class="st0" points="110.21,76.28 93.21,76.28 76.71,76.28 "/>
<polygon points="129.21,94.28 125.21,85.28 120.21,90.28 "/>
<polygon points="129.21,179.28 125.21,170.28 120.21,175.28 "/>
<polygon class="st2" points="76.71,82.78 44.71,82.78 44.71,75.62 44.71,69.78 76.71,69.78 "/>
<polygon class="st2" points="140.71,211.78 140.71,243.78 133.55,243.78 127.71,243.78 127.71,211.78 "/>
<polyline class="st0" points="110.21,160.28 93.21,160.28 76.71,160.28 "/>
<rect x="44.71" y="153.78" class="st2" width="32" height="13"/>
<path class="st2" d="M31.2,75.62"/>
<line class="st2" x1="44.71" y1="75.62" x2="31.2" y2="75.62"/>
<line class="st2" x1="44.71" y1="161.28" x2="31.2" y2="161.28"/>
<line class="st2" x1="133.84" y1="198.55" x2="162.08" y2="198.55"/>
<line class="st0" x1="133.55" y1="243.78" x2="133.55" y2="256.28"/>
<line class="st0" x1="123.21" y1="256.28" x2="143.74" y2="256.28"/>
<line class="st0" x1="127.71" y1="260.35" x2="139.72" y2="260.35"/>
<line class="st0" x1="130.71" y1="264.78" x2="136.21" y2="264.78"/>
<circle class="st2" cx="134.21" cy="26.28" r="2"/>
<circle class="st2" cx="29.21" cy="75.28" r="2"/>
<circle class="st2" cx="29.21" cy="161.28" r="2"/>
<circle class="st2" cx="164.21" cy="198.28" r="2"/>
<text transform="matrix(1 0 0 1 10.96 80.2454)" class="st3 st4">X</text>
<text transform="matrix(1 0 0 1 10.96 165.2454)" class="st3 st4">Y</text>
<text transform="matrix(1 0 0 1 169.96 204.2454)" class="st3 st4">Z</text>
<text transform="matrix(1 0 0 1 125.96 19.2454)" class="st5 st4">5V</text>
<circle class="st6" cx="134.21" cy="198.28" r="2"/>
</svg>
