<?xml version="1.0" encoding="utf-8"?>
<!-- Generator: Adobe Illustrator 26.0.3, SVG Export Plug-In . SVG Version: 6.00 Build 0)  -->
<svg version="1.1" id="Layer_1" xmlns="http://www.w3.org/2000/svg" xmlns:xlink="http://www.w3.org/1999/xlink" x="0px" y="0px"
	 viewBox="0 0 197 280" style="enable-background:new 0 0 197 280;" xml:space="preserve">
<style type="text/css">
	.st0{fill:#DCDCDC;stroke:#000000;stroke-width:2;stroke-miterlimit:10;}
	.st1{fill:#DCDCDC;stroke:#000000;stroke-width:3;stroke-miterlimit:10;}
	.st2{fill:none;stroke:#000000;stroke-width:2;stroke-miterlimit:10;}
	.st3{stroke:#000000;stroke-width:2;stroke-miterlimit:10;}
	.st4{font-family:'Helvetica-Oblique';}
	.st5{font-size:14px;}
	.st6{font-family:'Helvetica';}
</style>
<circle class="st0" cx="119.21" cy="164.28" r="27"/>
<line class="st1" x1="109.21" y1="147.28" x2="109.21" y2="179.96"/>
<circle class="st0" cx="119.21" cy="79.28" r="27"/>
<line class="st1" x1="109.21" y1="62.28" x2="109.21" y2="94.96"/>
<polyline class="st2" points="165.21,31.57 165.21,42.24 132.84,42.24 132.84,55.97 109.21,78.62 132.84,102.58 132.84,112.84 
	151.52,112.84 151.52,201.28 "/>
<polyline class="st0" points="109.21,79.28 92.21,79.28 75.71,79.28 "/>
<polygon points="128.21,97.28 124.21,88.28 119.21,93.28 "/>
<polygon points="128.21,182.28 124.21,173.28 119.21,178.28 "/>
<polygon class="st2" points="75.71,85.78 43.71,85.78 43.71,78.62 43.71,72.78 75.71,72.78 "/>
<polygon class="st2" points="139.71,214.78 139.71,246.78 132.55,246.78 126.71,246.78 126.71,214.78 "/>
<polyline class="st0" points="109.21,163.28 92.21,163.28 75.71,163.28 "/>
<rect x="43.71" y="156.78" class="st2" width="32" height="13"/>
<path class="st2" d="M30.2,78.62"/>
<line class="st2" x1="43.71" y1="78.62" x2="30.2" y2="78.62"/>
<line class="st2" x1="43.71" y1="164.28" x2="30.2" y2="164.28"/>
<line class="st2" x1="132.84" y1="201.55" x2="167.08" y2="201.55"/>
<line class="st0" x1="132.55" y1="246.78" x2="132.55" y2="259.28"/>
<line class="st0" x1="122.21" y1="259.28" x2="142.74" y2="259.28"/>
<line class="st0" x1="126.71" y1="263.35" x2="138.72" y2="263.35"/>
<line class="st0" x1="129.71" y1="267.78" x2="135.21" y2="267.78"/>
<circle class="st2" cx="165.21" cy="29.28" r="2"/>
<circle class="st3" cx="165.21" cy="42.28" r="2"/>
<circle class="st3" cx="151.21" cy="201.28" r="2"/>
<circle class="st3" cx="133.21" cy="201.28" r="2"/>
<circle class="st2" cx="28.21" cy="78.28" r="2"/>
<circle class="st2" cx="28.21" cy="164.28" r="2"/>
<circle class="st2" cx="169.21" cy="201.28" r="2"/>
<text transform="matrix(1 0 0 1 9.96 83.2454)" class="st4 st5">X</text>
<text transform="matrix(1 0 0 1 9.96 168.2454)" class="st4 st5">Y</text>
<text transform="matrix(1 0 0 1 174.96 207.2454)" class="st4 st5">Z</text>
<text transform="matrix(1 0 0 1 156.96 22.2454)" class="st6 st5">5V</text>
<polyline class="st2" points="165.21,42.24 165.21,132.28 132.84,132.23 132.84,140.97 109.21,163.62 132.84,187.58 132.84,215.87 
	"/>
</svg>
